AmstelvarA2-Roman_XTFI40.ufo
<glyph name="dollar" format="2">
  <advance width="617"/>
  <unicode hex="0024"/>
  <outline>
    <contour>
      <point x="56" y="275" type="qcurve"/>
      <point x="175" y="345" type="line"/>
      <point x="188" y="257"/>
      <point x="256" y="122"/>
      <point x="308" y="122" type="qcurve" smooth="yes"/>
      <point x="351" y="122"/>
      <point x="401" y="271"/>
      <point x="401" y="381" type="qcurve" smooth="yes"/>
      <point x="401" y="517"/>
      <point x="221" y="666"/>
      <point x="202" y="723" type="qcurve" smooth="yes"/>
      <point x="169" y="789"/>
      <point x="67" y="975"/>
      <point x="67" y="1126" type="qcurve" smooth="yes"/>
      <point x="67" y="1284"/>
      <point x="198" y="1501"/>
      <point x="303" y="1501" type="qcurve" smooth="yes"/>
      <point x="368" y="1501"/>
      <point x="485" y="1436"/>
      <point x="524" y="1372" type="qcurve"/>
      <point x="406" y="1267" type="line"/>
      <point x="390" y="1309"/>
      <point x="342" y="1371"/>
      <point x="310" y="1371" type="qcurve" smooth="yes"/>
      <point x="272" y="1371"/>
      <point x="227" y="1259"/>
      <point x="227" y="1163" type="qcurve" smooth="yes"/>
      <point x="227" y="1077"/>
      <point x="271" y="921"/>
      <point x="330" y="847" type="qcurve" smooth="yes"/>
      <point x="403" y="770"/>
      <point x="561" y="568"/>
      <point x="561" y="418" type="qcurve" smooth="yes"/>
      <point x="561" y="236"/>
      <point x="431" y="1"/>
      <point x="333" y="1" type="qcurve" smooth="yes"/>
      <point x="225" y="1"/>
      <point x="93" y="143"/>
    </contour>
    <contour>
      <point x="216" y="-190" type="line"/>
      <point x="216" y="55" type="line"/>
      <point x="236" y="52" type="line"/>
      <point x="236" y="783" type="line"/>
      <point x="360" y="741" type="line"/>
      <point x="360" y="52" type="line"/>
      <point x="382" y="52" type="line"/>
      <point x="382" y="-140" type="line"/>
    </contour>
    <contour>
      <point x="215" y="1610" type="line"/>
      <point x="381" y="1649" type="line"/>
      <point x="381" y="1418" type="line"/>
      <point x="360" y="1418" type="line"/>
      <point x="360" y="741" type="line"/>
      <point x="236" y="783" type="line"/>
      <point x="236" y="1418" type="line"/>
      <point x="215" y="1418" type="line"/>
    </contour>
  </outline>
</glyph>
<glyph name="plus" format="2">
  <advance width="711"/>
  <unicode hex="002B"/>
  <outline>
    <contour>
      <point x="80" y="556" type="line"/>
      <point x="80" y="708" type="line"/>
      <point x="631" y="708" type="line"/>
      <point x="631" y="556" type="line"/>
    </contour>
    <contour>
      <point x="276" y="356" type="line"/>
      <point x="276" y="908" type="line"/>
      <point x="436" y="908" type="line"/>
      <point x="436" y="356" type="line"/>
    </contour>
  </outline>
</glyph>
<glyph name="zero" format="2">
	<unicode hex="0030"/>
	<advance width="597"/>
	<outline>
		<contour>
			<point x="74" y="746" type="qcurve" smooth="yes"/>
			<point x="74" y="1091"/>
			<point x="200" y="1520"/>
			<point x="299" y="1520" type="qcurve" smooth="yes"/>
			<point x="398" y="1520"/>
			<point x="523" y="1097"/>
			<point x="523" y="754" type="qcurve" smooth="yes"/>
			<point x="523" y="432"/>
			<point x="403" y="-22"/>
			<point x="303" y="-22" type="qcurve" smooth="yes"/>
			<point x="202" y="-22"/>
			<point x="74" y="399"/>
		</contour>
		<contour>
			<point x="259" y="772" type="qcurve" smooth="yes"/>
			<point x="259" y="481"/>
			<point x="150" y="91"/>
			<point x="297" y="91" type="qcurve" smooth="yes"/>
			<point x="456" y="91"/>
			<point x="336" y="447"/>
			<point x="338" y="746" type="qcurve" smooth="yes"/>
			<point x="338" y="1027"/>
			<point x="448" y="1390"/>
			<point x="299" y="1390" type="qcurve" smooth="yes"/>
			<point x="138" y="1390"/>
			<point x="258" y="1060"/>
		</contour>
	</outline>
</glyph>
<glyph name="one" format="2">
	<unicode hex="0031"/>
	<advance width="660"/>
	<outline>
		<contour>
			<point x="4" y="0" type="line"/>
			<point x="4" y="94" type="line"/>
			<point x="262" y="129" type="line"/>
			<point x="262" y="754" type="line"/>
			<point x="260" y="1352" type="line"/>
			<point x="112" y="1386" type="line"/>
			<point x="112" y="1490" type="line"/>
			<point x="412" y="1513" type="line"/>
			<point x="444" y="1478" type="line"/>
			<point x="438" y="754" type="line"/>
			<point x="438" y="129" type="line"/>
			<point x="696" y="94" type="line"/>
			<point x="696" y="0" type="line"/>
		</contour>
	</outline>
</glyph>
<glyph name="two" format="2">
  <advance width="471"/>
  <unicode hex="0032"/>
  <outline>
    <contour>
      <point x="32" y="0" type="line"/>
      <point x="32" y="122" type="line"/>
      <point x="43" y="247"/>
      <point x="115" y="480"/>
      <point x="170" y="636" type="qcurve" smooth="yes"/>
      <point x="219" y="781"/>
      <point x="248" y="981"/>
      <point x="248" y="1133" type="qcurve" smooth="yes"/>
      <point x="248" y="1253"/>
      <point x="217" y="1389"/>
      <point x="182" y="1389" type="qcurve" smooth="yes"/>
      <point x="160" y="1389"/>
      <point x="122" y="1330"/>
      <point x="98" y="1263" type="qcurve"/>
      <point x="22" y="1373" type="line"/>
      <point x="50" y="1438"/>
      <point x="161" y="1520"/>
      <point x="224" y="1520" type="qcurve" smooth="yes"/>
      <point x="328" y="1520"/>
      <point x="440" y="1321"/>
      <point x="440" y="1150" type="qcurve" smooth="yes"/>
      <point x="440" y="948"/>
      <point x="306" y="651"/>
      <point x="255" y="548" type="qcurve" smooth="yes"/>
      <point x="201" y="434"/>
      <point x="180" y="242"/>
      <point x="175" y="177" type="qcurve"/>
      <point x="185" y="166" type="line"/>
      <point x="461" y="166" type="line"/>
      <point x="461" y="0" type="line"/>
    </contour>
  </outline>
</glyph>
<glyph name="three" format="2">
  <advance width="497"/>
  <unicode hex="0033"/>
  <outline>
    <contour>
      <point x="4" y="143" type="qcurve"/>
      <point x="75" y="248" type="line"/>
      <point x="96" y="170"/>
      <point x="141" y="103"/>
      <point x="166" y="103" type="qcurve" smooth="yes"/>
      <point x="197" y="103"/>
      <point x="240" y="250"/>
      <point x="240" y="403" type="qcurve" smooth="yes"/>
      <point x="240" y="571"/>
      <point x="178" y="728"/>
      <point x="149" y="728" type="qcurve" smooth="yes"/>
      <point x="144" y="728" type="line"/>
      <point x="132" y="829" type="line"/>
      <point x="161" y="833" type="line" smooth="yes"/>
      <point x="213" y="840"/>
      <point x="231" y="1006"/>
      <point x="231" y="1161" type="qcurve" smooth="yes"/>
      <point x="231" y="1278"/>
      <point x="207" y="1403"/>
      <point x="157" y="1403" type="qcurve" smooth="yes"/>
      <point x="151" y="1403"/>
      <point x="112" y="1365"/>
      <point x="93" y="1312" type="qcurve"/>
      <point x="44" y="1397" type="line"/>
      <point x="66" y="1448"/>
      <point x="155" y="1520"/>
      <point x="216" y="1520" type="qcurve" smooth="yes"/>
      <point x="313" y="1520"/>
      <point x="417" y="1332"/>
      <point x="417" y="1184" type="qcurve" smooth="yes"/>
      <point x="417" y="1027"/>
      <point x="327" y="846"/>
      <point x="253" y="800" type="qcurve"/>
      <point x="253" y="793" type="line"/>
      <point x="326" y="765"/>
      <point x="431" y="549"/>
      <point x="431" y="377" type="qcurve" smooth="yes"/>
      <point x="431" y="189"/>
      <point x="298" y="-22"/>
      <point x="194" y="-22" type="qcurve" smooth="yes"/>
      <point x="131" y="-22"/>
      <point x="40" y="57"/>
    </contour>
  </outline>
</glyph>
<glyph name="four" format="2">
  <advance width="673"/>
  <unicode hex="0034"/>
  <outline>
    <contour>
      <point x="48" y="554" type="line"/>
      <point x="305" y="1547" type="line"/>
      <point x="402" y="1510" type="line"/>
      <point x="434" y="1494" type="line"/>
      <point x="428" y="491" type="line"/>
      <point x="428" y="129" type="line"/>
      <point x="656" y="94" type="line"/>
      <point x="656" y="0" type="line"/>
      <point x="14" y="0" type="line"/>
      <point x="14" y="94" type="line"/>
      <point x="252" y="129" type="line"/>
      <point x="261" y="489" type="line"/>
      <point x="261" y="1124" type="line"/>
      <point x="180" y="568" type="line"/>
      <point x="186" y="558" type="line"/>
      <point x="548" y="538" type="line"/>
      <point x="548" y="442" type="line"/>
      <point x="68" y="438" type="line"/>
    </contour>
  </outline>
</glyph>
<glyph name="five" format="2">
  <advance width="506"/>
  <unicode hex="0035"/>
  <outline>
    <contour>
      <point x="2" y="143" type="qcurve"/>
      <point x="66" y="250" type="line"/>
      <point x="87" y="180"/>
      <point x="132" y="111"/>
      <point x="162" y="111" type="qcurve" smooth="yes"/>
      <point x="202" y="111"/>
      <point x="258" y="272"/>
      <point x="258" y="444" type="qcurve" smooth="yes"/>
      <point x="258" y="613"/>
      <point x="160" y="796"/>
      <point x="140" y="796" type="qcurve" smooth="yes"/>
      <point x="112" y="796" type="line"/>
      <point x="69" y="850" type="line"/>
      <point x="137" y="1467" type="line"/>
      <point x="164" y="1500" type="line"/>
      <point x="399" y="1500" type="line"/>
      <point x="392" y="1324" type="line"/>
      <point x="239" y="1324" type="line"/>
      <point x="229" y="1313" type="line"/>
      <point x="177" y="905" type="line"/>
      <point x="205" y="947" type="line"/>
      <point x="287" y="936"/>
      <point x="446" y="698"/>
      <point x="446" y="502" type="qcurve" smooth="yes"/>
      <point x="446" y="261"/>
      <point x="290" y="-22"/>
      <point x="177" y="-22" type="qcurve" smooth="yes"/>
      <point x="125" y="-22"/>
      <point x="35" y="56"/>
    </contour>
  </outline>
</glyph>
<glyph name="six" format="2">
  <advance width="481"/>
  <unicode hex="0036"/>
  <outline>
    <contour>
      <point x="74" y="619" type="qcurve" smooth="yes"/>
      <point x="74" y="924"/>
      <point x="176" y="1415"/>
      <point x="247" y="1579" type="qcurve"/>
      <point x="316" y="1550" type="line"/>
      <point x="286" y="1388"/>
      <point x="257" y="977"/>
      <point x="257" y="616" type="qcurve" smooth="yes"/>
      <point x="257" y="356"/>
      <point x="255" y="89"/>
      <point x="254" y="89" type="qcurve" smooth="yes"/>
      <point x="249" y="89"/>
      <point x="249" y="290"/>
      <point x="249" y="457" type="qcurve" smooth="yes"/>
      <point x="249" y="625"/>
      <point x="256" y="793"/>
      <point x="252" y="793" type="qcurve" smooth="yes"/>
      <point x="253" y="793"/>
      <point x="260" y="782"/>
      <point x="261" y="769" type="qcurve"/>
      <point x="224" y="838" type="line"/>
      <point x="242" y="882"/>
      <point x="289" y="926"/>
      <point x="312" y="926" type="qcurve" smooth="yes"/>
      <point x="366" y="926"/>
      <point x="430" y="686"/>
      <point x="430" y="527" type="qcurve" smooth="yes"/>
      <point x="430" y="259"/>
      <point x="318" y="-22"/>
      <point x="262" y="-22" type="qcurve" smooth="yes"/>
      <point x="193" y="-22"/>
      <point x="74" y="281"/>
    </contour>
  </outline>
</glyph>
<glyph name="seven" format="2">
  <advance width="419"/>
  <unicode hex="0037"/>
  <outline>
    <contour>
      <point x="24" y="1098" type="line"/>
      <point x="46" y="1500" type="line"/>
      <point x="439" y="1500" type="line"/>
      <point x="439" y="1409" type="line"/>
      <point x="340" y="625" type="line"/>
      <point x="323" y="-13" type="line"/>
      <point x="117" y="-13" type="line"/>
      <point x="117" y="60" type="line"/>
      <point x="222" y="670" type="line"/>
      <point x="275" y="1309" type="line"/>
      <point x="245" y="1332" type="line"/>
      <point x="182" y="1332" type="line"/>
      <point x="146" y="1098" type="line"/>
    </contour>
  </outline>
</glyph>
<glyph name="eight" format="2">
  <advance width="394"/>
  <unicode hex="0038"/>
  <outline>
    <contour>
      <point x="42" y="392" type="qcurve" smooth="yes"/>
      <point x="42" y="572"/>
      <point x="127" y="809"/>
      <point x="150" y="850" type="qcurve"/>
      <point x="178" y="782" type="line"/>
      <point x="180" y="729"/>
      <point x="180" y="553"/>
      <point x="180" y="407" type="qcurve" smooth="yes"/>
      <point x="180" y="270"/>
      <point x="192" y="87"/>
      <point x="191" y="87" type="qcurve" smooth="yes"/>
      <point x="203" y="87"/>
      <point x="199" y="250"/>
      <point x="199" y="388" type="qcurve" smooth="yes"/>
      <point x="199" y="496"/>
      <point x="183" y="657"/>
      <point x="151" y="771" type="qcurve" smooth="yes"/>
      <point x="149" y="816"/>
      <point x="62" y="1023"/>
      <point x="62" y="1166" type="qcurve" smooth="yes"/>
      <point x="62" y="1330"/>
      <point x="163" y="1530"/>
      <point x="215" y="1530" type="qcurve" smooth="yes"/>
      <point x="263" y="1530"/>
      <point x="344" y="1350"/>
      <point x="344" y="1217" type="qcurve" smooth="yes"/>
      <point x="344" y="1087"/>
      <point x="280" y="888"/>
      <point x="239" y="803" type="qcurve"/>
      <point x="213" y="864" type="line"/>
      <point x="206" y="931"/>
      <point x="206" y="1079"/>
      <point x="206" y="1188" type="qcurve" smooth="yes"/>
      <point x="206" y="1292"/>
      <point x="197" y="1420"/>
      <point x="208" y="1420" type="qcurve" smooth="yes"/>
      <point x="216" y="1420"/>
      <point x="206" y="1315"/>
      <point x="206" y="1187" type="qcurve" smooth="yes"/>
      <point x="206" y="1098"/>
      <point x="245" y="972"/>
      <point x="262" y="906" type="qcurve" smooth="yes"/>
      <point x="281" y="806"/>
      <point x="362" y="563"/>
      <point x="362" y="413" type="qcurve" smooth="yes"/>
      <point x="362" y="233"/>
      <point x="268" y="-22"/>
      <point x="204" y="-22" type="qcurve" smooth="yes"/>
      <point x="134" y="-22"/>
      <point x="42" y="228"/>
    </contour>
  </outline>
</glyph>
<glyph name="nine" format="2">
  <advance width="484"/>
  <unicode hex="0039"/>
  <outline>
    <contour>
      <point x="51" y="1002" type="qcurve" smooth="yes"/>
      <point x="51" y="1234"/>
      <point x="145" y="1519"/>
      <point x="215" y="1519" type="qcurve" smooth="yes"/>
      <point x="309" y="1519"/>
      <point x="410" y="1174"/>
      <point x="410" y="873" type="qcurve" smooth="yes"/>
      <point x="410" y="547"/>
      <point x="301" y="80"/>
      <point x="236" y="-81" type="qcurve"/>
      <point x="165" y="-52" type="line"/>
      <point x="193" y="112"/>
      <point x="227" y="498"/>
      <point x="227" y="876" type="qcurve" smooth="yes"/>
      <point x="227" y="1134"/>
      <point x="220" y="1408"/>
      <point x="226" y="1408" type="qcurve" smooth="yes"/>
      <point x="232" y="1408"/>
      <point x="235" y="1195"/>
      <point x="235" y="1035" type="qcurve" smooth="yes"/>
      <point x="235" y="870"/>
      <point x="226" y="705"/>
      <point x="223" y="705" type="qcurve" smooth="yes"/>
      <point x="221" y="705"/>
      <point x="219" y="715"/>
      <point x="219" y="730" type="qcurve"/>
      <point x="257" y="663" type="line"/>
      <point x="237" y="611"/>
      <point x="196" y="571"/>
      <point x="171" y="571" type="qcurve" smooth="yes"/>
      <point x="116" y="571"/>
      <point x="51" y="808"/>
    </contour>
  </outline>
</glyph>
<glyph name="less" format="2">
  <advance width="711"/>
  <unicode hex="003C"/>
  <outline>
    <contour>
      <point x="301" y="634" type="qcurve"/>
      <point x="304" y="638"/>
      <point x="360" y="958"/>
      <point x="397" y="1035" type="qcurve" smooth="yes"/>
      <point x="435" y="1111"/>
      <point x="555" y="1076"/>
      <point x="529" y="998" type="qcurve" smooth="yes"/>
      <point x="463" y="808"/>
      <point x="450" y="637"/>
      <point x="446" y="637" type="qcurve"/>
      <point x="450" y="637"/>
      <point x="484" y="448"/>
      <point x="547" y="265" type="qcurve" smooth="yes"/>
      <point x="574" y="188"/>
      <point x="454" y="147"/>
      <point x="417" y="226" type="qcurve" smooth="yes"/>
      <point x="380" y="307"/>
      <point x="303" y="630"/>
    </contour>
  </outline>
</glyph>
<glyph name="equal" format="2">
	<unicode hex="003D"/>
	<advance width="711"/>
	<outline>
		<contour>
			<point x="114" y="334" type="line"/>
			<point x="114" y="506" type="line"/>
			<point x="354" y="502" type="line"/>
			<point x="597" y="506" type="line"/>
			<point x="597" y="334" type="line"/>
			<point x="354" y="338" type="line"/>
		</contour>
		<contour>
			<point x="114" y="736" type="line"/>
			<point x="114" y="908" type="line"/>
			<point x="354" y="904" type="line"/>
			<point x="597" y="908" type="line"/>
			<point x="597" y="736" type="line"/>
			<point x="354" y="740" type="line"/>
		</contour>
	</outline>
</glyph>
<glyph name="greater" format="2">
  <advance width="711"/>
  <unicode hex="003E"/>
  <outline>
    <contour>
      <point x="166" y="272" type="qcurve" smooth="yes"/>
      <point x="229" y="454"/>
      <point x="261" y="641"/>
      <point x="265" y="641" type="qcurve"/>
      <point x="261" y="641"/>
      <point x="248" y="815"/>
      <point x="183" y="1005" type="qcurve" smooth="yes"/>
      <point x="156" y="1083"/>
      <point x="277" y="1117"/>
      <point x="314" y="1041" type="qcurve" smooth="yes"/>
      <point x="352" y="964"/>
      <point x="407" y="640"/>
      <point x="410" y="636" type="qcurve"/>
      <point x="409" y="632"/>
      <point x="332" y="312"/>
      <point x="294" y="232" type="qcurve" smooth="yes"/>
      <point x="256" y="154"/>
      <point x="138" y="195"/>
    </contour>
  </outline>
</glyph>
<glyph name="asciitilde" format="2">
  <advance width="711"/>
  <unicode hex="007E"/>
  <outline>
    <contour>
      <point x="56" y="601" type="line"/>
      <point x="100" y="694"/>
      <point x="204" y="806"/>
      <point x="260" y="806" type="qcurve"/>
      <point x="491" y="671" type="line"/>
      <point x="521" y="671"/>
      <point x="554" y="765"/>
      <point x="565" y="813" type="qcurve"/>
      <point x="655" y="761" type="line"/>
      <point x="623" y="659"/>
      <point x="545" y="516"/>
      <point x="457" y="516" type="qcurve"/>
      <point x="241" y="643" type="line"/>
      <point x="211" y="643"/>
      <point x="164" y="589"/>
      <point x="132" y="537" type="qcurve"/>
    </contour>
  </outline>
</glyph>
<glyph name="cent" format="2">
  <advance width="534"/>
  <unicode hex="00A2"/>
  <outline>
    <contour>
      <point x="64" y="475" type="qcurve" smooth="yes"/>
      <point x="64" y="714"/>
      <point x="212" y="1022"/>
      <point x="341" y="1022" type="qcurve" smooth="yes"/>
      <point x="361" y="1022"/>
      <point x="397" y="989"/>
      <point x="406" y="965" type="qcurve"/>
      <point x="430" y="1019" type="line"/>
      <point x="503" y="990" type="line"/>
      <point x="519" y="664" type="line"/>
      <point x="421" y="647" type="line"/>
      <point x="415" y="715" type="line" smooth="yes"/>
      <point x="407" y="794"/>
      <point x="364" y="911"/>
      <point x="341" y="911" type="qcurve" smooth="yes"/>
      <point x="298" y="911"/>
      <point x="244" y="711"/>
      <point x="244" y="517" type="qcurve" smooth="yes"/>
      <point x="244" y="309"/>
      <point x="308" y="97"/>
      <point x="362" y="97" type="qcurve" smooth="yes"/>
      <point x="401" y="97"/>
      <point x="445" y="163"/>
      <point x="461" y="223" type="qcurve"/>
      <point x="526" y="185" type="line"/>
      <point x="508" y="99"/>
      <point x="421" y="-22"/>
      <point x="349" y="-22" type="qcurve" smooth="yes"/>
      <point x="220" y="-22"/>
      <point x="64" y="246"/>
    </contour>
    <contour>
      <point x="261" y="-210" type="line"/>
      <point x="261" y="52" type="line"/>
      <point x="288" y="52" type="line"/>
      <point x="288" y="520" type="line"/>
      <point x="392" y="478" type="line"/>
      <point x="392" y="52" type="line"/>
      <point x="422" y="52" type="line"/>
      <point x="422" y="-160" type="line"/>
    </contour>
    <contour>
      <point x="260" y="1170" type="line"/>
      <point x="422" y="1209" type="line"/>
      <point x="422" y="988" type="line"/>
      <point x="392" y="988" type="line"/>
      <point x="392" y="478" type="line"/>
      <point x="288" y="520" type="line"/>
      <point x="288" y="988" type="line"/>
      <point x="260" y="988" type="line"/>
    </contour>
  </outline>
</glyph>
<glyph name="sterling" format="2">
	<unicode hex="00A3"/>
	<advance width="520"/>
	<outline>
		<contour>
			<point x="275" y="552" type="qcurve" smooth="yes"/>
			<point x="275" y="414"/>
			<point x="242" y="185"/>
			<point x="223" y="141" type="qcurve"/>
			<point x="231" y="108" type="line"/>
			<point x="232" y="108" type="line"/>
			<point x="366" y="372" type="line"/>
			<point x="478" y="372" type="line"/>
			<point x="379" y="0" type="line"/>
			<point x="70" y="0" type="line"/>
			<point x="10" y="100" type="line"/>
			<point x="37" y="125" type="line"/>
			<point x="67" y="115"/>
			<point x="99" y="346"/>
			<point x="99" y="430" type="qcurve" smooth="yes"/>
			<point x="99" y="524"/>
			<point x="85" y="676"/>
			<point x="74" y="747" type="qcurve" smooth="yes"/>
			<point x="61" y="842"/>
			<point x="34" y="1039"/>
			<point x="34" y="1146" type="qcurve" smooth="yes"/>
			<point x="34" y="1279"/>
			<point x="171" y="1501"/>
			<point x="274" y="1501" type="qcurve" smooth="yes"/>
			<point x="323" y="1501"/>
			<point x="401" y="1397"/>
			<point x="431" y="1301" type="qcurve"/>
			<point x="331" y="1222" type="line"/>
			<point x="320" y="1279"/>
			<point x="287" y="1371"/>
			<point x="263" y="1371" type="qcurve" smooth="yes"/>
			<point x="237" y="1371"/>
			<point x="209" y="1246"/>
			<point x="209" y="1163" type="qcurve" smooth="yes"/>
			<point x="209" y="1087"/>
			<point x="232" y="923"/>
			<point x="245" y="836" type="qcurve" smooth="yes"/>
			<point x="257" y="759"/>
			<point x="275" y="609"/>
		</contour>
		<contour>
			<point x="66" y="571" type="line"/>
			<point x="42" y="707" type="line"/>
			<point x="338" y="707" type="line"/>
			<point x="308" y="571" type="line"/>
		</contour>
	</outline>
</glyph>
<glyph name="currency" format="2">
  <advance width="1143"/>
  <unicode hex="00A4"/>
  <outline>
    <contour>
      <point x="252" y="760" type="qcurve" smooth="yes"/>
      <point x="252" y="893"/>
      <point x="429" y="1082"/>
      <point x="572" y="1082" type="qcurve" smooth="yes"/>
      <point x="715" y="1082"/>
      <point x="894" y="905"/>
      <point x="894" y="764" type="qcurve" smooth="yes"/>
      <point x="894" y="630"/>
      <point x="718" y="438"/>
      <point x="575" y="438" type="qcurve" smooth="yes"/>
      <point x="432" y="438"/>
      <point x="252" y="616"/>
    </contour>
    <contour>
      <point x="404" y="764" type="qcurve" smooth="yes"/>
      <point x="405" y="688"/>
      <point x="495" y="582"/>
      <point x="568" y="582" type="qcurve" smooth="yes"/>
      <point x="647" y="582"/>
      <point x="733" y="678"/>
      <point x="733" y="758" type="qcurve" smooth="yes"/>
      <point x="733" y="832"/>
      <point x="644" y="926"/>
      <point x="569" y="926" type="qcurve" smooth="yes"/>
      <point x="490" y="926"/>
      <point x="403" y="840"/>
    </contour>
    <contour>
      <point x="307" y="905" type="line"/>
      <point x="91" y="1121" type="line"/>
      <point x="207" y="1244" type="line"/>
      <point x="423" y="1028" type="line"/>
    </contour>
    <contour>
      <point x="836" y="905" type="line"/>
      <point x="720" y="1028" type="line"/>
      <point x="936" y="1244" type="line"/>
      <point x="1052" y="1121" type="line"/>
    </contour>
    <contour>
      <point x="307" y="595" type="line"/>
      <point x="423" y="472" type="line"/>
      <point x="207" y="256" type="line"/>
      <point x="91" y="379" type="line"/>
    </contour>
    <contour>
      <point x="836" y="595" type="line"/>
      <point x="1052" y="379" type="line"/>
      <point x="936" y="256" type="line"/>
      <point x="720" y="472" type="line"/>
    </contour>
  </outline>
</glyph>
<glyph name="yen" format="2">
	<unicode hex="00A5"/>
	<advance width="696"/>
	<outline>
		<contour>
			<point x="-110" y="631" type="line"/>
			<point x="-140" y="757" type="line"/>
			<point x="834" y="757" type="line"/>
			<point x="804" y="631" type="line"/>
		</contour>
		<contour>
			<point x="261" y="640" type="line"/>
			<point x="198" y="1055" type="line"/>
			<point x="158" y="1360" type="line"/>
			<point x="-10" y="1386" type="line"/>
			<point x="-10" y="1500" type="line"/>
			<point x="529" y="1500" type="line"/>
			<point x="529" y="1386" type="line"/>
			<point x="366" y="1351" type="line"/>
			<point x="372" y="1112" type="line"/>
			<point x="378" y="868" type="line"/>
			<point x="365" y="1078" type="line"/>
			<point x="377" y="1358" type="line"/>
			<point x="185" y="1386" type="line"/>
			<point x="185" y="1500" type="line"/>
			<point x="706" y="1500" type="line"/>
			<point x="706" y="1386" type="line"/>
			<point x="531" y="1359" type="line"/>
			<point x="504" y="1065" type="line"/>
			<point x="437" y="645" type="line"/>
			<point x="439" y="135" type="line"/>
			<point x="657" y="100" type="line"/>
			<point x="657" y="0" type="line"/>
			<point x="38" y="0" type="line"/>
			<point x="38" y="100" type="line"/>
			<point x="259" y="135" type="line"/>
		</contour>
		<contour>
			<point x="-50" y="331" type="line"/>
			<point x="-80" y="457" type="line"/>
			<point x="774" y="457" type="line"/>
			<point x="744" y="331" type="line"/>
		</contour>
	</outline>
</glyph>
<glyph name="logicalnot" format="2">
  <advance width="711"/>
  <unicode hex="00AC"/>
  <outline>
    <contour>
      <point x="63" y="708" type="line"/>
      <point x="614" y="708" type="line"/>
      <point x="614" y="200" type="line"/>
      <point x="454" y="200" type="line"/>
      <point x="454" y="556" type="line"/>
      <point x="63" y="556" type="line"/>
    </contour>
  </outline>
</glyph>
<glyph name="plusminus" format="2">
  <advance width="643"/>
  <unicode hex="00B1"/>
  <outline>
    <contour>
      <point x="80" y="538" type="line"/>
      <point x="80" y="690" type="line"/>
      <point x="563" y="690" type="line"/>
      <point x="563" y="538" type="line"/>
    </contour>
    <contour>
      <point x="242" y="238" type="line"/>
      <point x="242" y="1032" type="line"/>
      <point x="402" y="1032" type="line"/>
      <point x="402" y="238" type="line"/>
    </contour>
    <contour>
      <point x="80" y="26" type="line"/>
      <point x="80" y="171" type="line"/>
      <point x="563" y="171" type="line"/>
      <point x="563" y="26" type="line"/>
    </contour>
  </outline>
</glyph>
<glyph name="twosuperior" format="2">
  <advance width="552"/>
  <unicode hex="00B2"/>
  <outline>
    <contour>
      <point x="77" y="671" type="line"/>
      <point x="75" y="777" type="line"/>
      <point x="81" y="851"/>
      <point x="197" y="1007"/>
      <point x="242" y="1083" type="qcurve" smooth="yes"/>
      <point x="280" y="1145"/>
      <point x="301" y="1233"/>
      <point x="299" y="1298" type="qcurve" smooth="yes"/>
      <point x="298" y="1355"/>
      <point x="264" y="1409"/>
      <point x="243" y="1409" type="qcurve" smooth="yes"/>
      <point x="209" y="1409"/>
      <point x="166" y="1365"/>
      <point x="144" y="1315" type="qcurve"/>
      <point x="72" y="1398" type="line"/>
      <point x="104" y="1449"/>
      <point x="200" y="1520"/>
      <point x="282" y="1520" type="qcurve" smooth="yes"/>
      <point x="358" y="1520"/>
      <point x="470" y="1413"/>
      <point x="470" y="1313" type="qcurve" smooth="yes"/>
      <point x="470" y="1203"/>
      <point x="387" y="1063"/>
      <point x="338" y="1015" type="qcurve" smooth="yes"/>
      <point x="274" y="952"/>
      <point x="219" y="860"/>
      <point x="211" y="826" type="qcurve"/>
      <point x="211" y="800" type="line"/>
      <point x="476" y="800" type="line"/>
      <point x="476" y="671" type="line"/>
    </contour>
  </outline>
</glyph>
<glyph name="threesuperior" format="2">
  <advance width="464"/>
  <unicode hex="00B3"/>
  <outline>
    <contour>
      <point x="42" y="716" type="qcurve"/>
      <point x="85" y="809" type="line"/>
      <point x="106" y="780"/>
      <point x="153" y="755"/>
      <point x="170" y="755" type="qcurve" smooth="yes"/>
      <point x="201" y="755"/>
      <point x="231" y="825"/>
      <point x="231" y="908" type="qcurve" smooth="yes"/>
      <point x="231" y="989"/>
      <point x="188" y="1059"/>
      <point x="146" y="1059" type="qcurve" smooth="yes"/>
      <point x="137" y="1059" type="line"/>
      <point x="130" y="1154" type="line"/>
      <point x="151" y="1157" type="line" smooth="yes"/>
      <point x="189" y="1163"/>
      <point x="223" y="1240"/>
      <point x="223" y="1310" type="qcurve" smooth="yes"/>
      <point x="223" y="1364"/>
      <point x="202" y="1416"/>
      <point x="175" y="1416" type="qcurve" smooth="yes"/>
      <point x="158" y="1416"/>
      <point x="120" y="1397"/>
      <point x="96" y="1370" type="qcurve"/>
      <point x="57" y="1445" type="line"/>
      <point x="91" y="1484"/>
      <point x="177" y="1520"/>
      <point x="208" y="1520" type="qcurve" smooth="yes"/>
      <point x="293" y="1520"/>
      <point x="377" y="1417"/>
      <point x="377" y="1337" type="qcurve" smooth="yes"/>
      <point x="377" y="1252"/>
      <point x="300" y="1142"/>
      <point x="227" y="1118" type="qcurve"/>
      <point x="227" y="1114" type="line"/>
      <point x="302" y="1111"/>
      <point x="386" y="1001"/>
      <point x="386" y="905" type="qcurve" smooth="yes"/>
      <point x="386" y="783"/>
      <point x="292" y="649"/>
      <point x="194" y="649" type="qcurve" smooth="yes"/>
      <point x="154" y="649"/>
      <point x="82" y="677"/>
    </contour>
  </outline>
</glyph>
<glyph name="onesuperior" format="2">
  <advance width="530"/>
  <unicode hex="00B9"/>
  <outline>
    <contour>
      <point x="114" y="670" type="line"/>
      <point x="114" y="754" type="line"/>
      <point x="207" y="784" type="line"/>
      <point x="209" y="1109" type="line"/>
      <point x="207" y="1377" type="line"/>
      <point x="112" y="1396" type="line"/>
      <point x="112" y="1480" type="line"/>
      <point x="330" y="1513" type="line"/>
      <point x="359" y="1478" type="line"/>
      <point x="354" y="1109" type="line"/>
      <point x="355" y="784" type="line"/>
      <point x="448" y="754" type="line"/>
      <point x="448" y="670" type="line"/>
    </contour>
  </outline>
</glyph>
<glyph name="multiply" format="2">
	<unicode hex="00D7"/>
	<advance width="711"/>
	<outline>
		<contour>
			<point x="194" y="370" type="line"/>
			<point x="93" y="471" type="line"/>
			<point x="517" y="894" type="line"/>
			<point x="618" y="793" type="line"/>
		</contour>
		<contour>
			<point x="512" y="365" type="line"/>
			<point x="88" y="788" type="line"/>
			<point x="199" y="899" type="line"/>
			<point x="623" y="476" type="line"/>
		</contour>
	</outline>
</glyph>
<glyph name="divide" format="2">
	<unicode hex="00F7"/>
	<advance width="711"/>
	<outline>
		<contour>
			<point x="108" y="556" type="line"/>
			<point x="108" y="708" type="line"/>
			<point x="603" y="708" type="line"/>
			<point x="603" y="556" type="line"/>
		</contour>
		<contour>
			<point x="220" y="320" type="qcurve" smooth="yes"/>
			<point x="220" y="372"/>
			<point x="293" y="450"/>
			<point x="350" y="450" type="qcurve" smooth="yes"/>
			<point x="407" y="450"/>
			<point x="480" y="372"/>
			<point x="480" y="320" type="qcurve" smooth="yes"/>
			<point x="480" y="269"/>
			<point x="407" y="191"/>
			<point x="350" y="191" type="qcurve" smooth="yes"/>
			<point x="293" y="191"/>
			<point x="220" y="269"/>
		</contour>
		<contour>
			<point x="220" y="945" type="qcurve" smooth="yes"/>
			<point x="220" y="997"/>
			<point x="293" y="1075"/>
			<point x="350" y="1075" type="qcurve" smooth="yes"/>
			<point x="407" y="1075"/>
			<point x="480" y="997"/>
			<point x="480" y="945" type="qcurve" smooth="yes"/>
			<point x="480" y="894"/>
			<point x="407" y="816"/>
			<point x="350" y="816" type="qcurve" smooth="yes"/>
			<point x="293" y="816"/>
			<point x="220" y="894"/>
		</contour>
	</outline>
</glyph>
<glyph name="florin" format="2">
  <advance width="299"/>
  <unicode hex="0192"/>
  <outline>
    <contour>
      <point x="237" y="-87" type="line" smooth="yes"/>
      <point x="239" y="-181"/>
      <point x="163" y="-309"/>
      <point x="104" y="-309" type="qcurve" smooth="yes"/>
      <point x="69" y="-309"/>
      <point x="41" y="-302"/>
      <point x="24" y="-296" type="qcurve" smooth="yes"/>
      <point x="13" y="-291" type="line"/>
      <point x="25" y="-188" type="line"/>
      <point x="32" y="-191" type="line" smooth="yes"/>
      <point x="33" y="-193"/>
      <point x="47" y="-198"/>
      <point x="52" y="-198" type="qcurve" smooth="yes"/>
      <point x="68" y="-198"/>
      <point x="84" y="-144"/>
      <point x="82" y="-70" type="qcurve" smooth="yes"/>
      <point x="63" y="860" type="line"/>
      <point x="25" y="872" type="line"/>
      <point x="16" y="966" type="line"/>
      <point x="58" y="984" type="line"/>
      <point x="49" y="1314" type="line" smooth="yes"/>
      <point x="47" y="1408"/>
      <point x="127" y="1518"/>
      <point x="187" y="1518" type="qcurve" smooth="yes"/>
      <point x="215" y="1518"/>
      <point x="243" y="1513"/>
      <point x="257" y="1505" type="qcurve" smooth="yes"/>
      <point x="270" y="1498" type="line"/>
      <point x="253" y="1397" type="line"/>
      <point x="249" y="1400" type="line" smooth="yes"/>
      <point x="243" y="1404"/>
      <point x="241" y="1406"/>
      <point x="231" y="1406" type="qcurve" smooth="yes"/>
      <point x="222" y="1406"/>
      <point x="202" y="1347"/>
      <point x="205" y="1279" type="qcurve" smooth="yes"/>
      <point x="214" y="985" type="line"/>
      <point x="256" y="985" type="line"/>
      <point x="256" y="883" type="line"/>
      <point x="217" y="872" type="line"/>
    </contour>
  </outline>
</glyph>
<glyph name="macronbelowcomb" format="2">
	<unicode hex="0331"/>
	<outline>
		<contour>
			<point x="-296" y="-300" type="line"/>
			<point x="-296" y="-144" type="line"/>
			<point x="296" y="-144" type="line"/>
			<point x="296" y="-300" type="line"/>
		</contour>
	</outline>
	<anchor name="_bottom" x="0" y="0"/>
	<anchor name="bottom" x="0" y="-300"/>
</glyph>
<glyph name="fraction" format="2">
  <advance width="165"/>
  <unicode hex="2044"/>
  <outline>
    <contour>
      <point x="-165" y="-20" type="line"/>
      <point x="211" y="1529" type="line"/>
      <point x="329" y="1502" type="line"/>
      <point x="-46" y="-48" type="line"/>
    </contour>
  </outline>
</glyph>
<glyph name="foursuperior" format="2">
  <advance width="550"/>
  <unicode hex="2074"/>
  <outline>
    <contour>
      <point x="48" y="1013" type="line"/>
      <point x="238" y="1517" type="line"/>
      <point x="341" y="1497" type="line"/>
      <point x="363" y="1469" type="line"/>
      <point x="366" y="948" type="line"/>
      <point x="366" y="774" type="line"/>
      <point x="504" y="755" type="line"/>
      <point x="504" y="670" type="line"/>
      <point x="72" y="670" type="line"/>
      <point x="72" y="755" type="line"/>
      <point x="227" y="774" type="line"/>
      <point x="229" y="947" type="line"/>
      <point x="233" y="1319" type="line"/>
      <point x="137" y="1036" type="line"/>
      <point x="138" y="1018" type="line"/>
      <point x="415" y="1014" type="line"/>
      <point x="415" y="921" type="line"/>
      <point x="70" y="919" type="line"/>
    </contour>
  </outline>
</glyph>
<glyph name="colonsign" format="2">
	<unicode hex="20A1"/>
	<advance width="690"/>
	<outline>
		<contour>
			<point x="114" y="691" type="qcurve" smooth="yes"/>
			<point x="114" y="993"/>
			<point x="284" y="1448"/>
			<point x="438" y="1448" type="qcurve" smooth="yes"/>
			<point x="536" y="1448"/>
			<point x="667" y="1209"/>
			<point x="669" y="993" type="qcurve"/>
			<point x="563" y="993" type="line"/>
			<point x="560" y="1150"/>
			<point x="513" y="1331"/>
			<point x="452" y="1331" type="qcurve" smooth="yes"/>
			<point x="385" y="1331"/>
			<point x="306" y="1009"/>
			<point x="307" y="728" type="qcurve" smooth="yes"/>
			<point x="306" y="457"/>
			<point x="391" y="169"/>
			<point x="454" y="169" type="qcurve" smooth="yes"/>
			<point x="500" y="169"/>
			<point x="569" y="268"/>
			<point x="590" y="353" type="qcurve"/>
			<point x="680" y="277" type="line"/>
			<point x="644" y="169"/>
			<point x="509" y="18"/>
			<point x="434" y="18" type="qcurve" smooth="yes"/>
			<point x="277" y="18"/>
			<point x="114" y="426"/>
		</contour>
		<contour>
			<point x="423" y="-149" type="line"/>
			<point x="425" y="87" type="line"/>
			<point x="438" y="82" type="line"/>
			<point x="443" y="831" type="line"/>
			<point x="570" y="762" type="line"/>
			<point x="565" y="55" type="line"/>
			<point x="579" y="50" type="line"/>
			<point x="578" y="-137" type="line"/>
		</contour>
		<contour>
			<point x="434" y="1567" type="line"/>
			<point x="589" y="1567" type="line"/>
			<point x="588" y="1346" type="line"/>
			<point x="575" y="1350" type="line"/>
			<point x="570" y="762" type="line"/>
			<point x="443" y="831" type="line"/>
			<point x="448" y="1378" type="line"/>
			<point x="434" y="1383" type="line"/>
		</contour>
		<contour>
			<point x="277" y="-79" type="line"/>
			<point x="286" y="229" type="line"/>
			<point x="298" y="224" type="line"/>
			<point x="299" y="831" type="line"/>
			<point x="427" y="762" type="line"/>
			<point x="425" y="197" type="line"/>
			<point x="439" y="192" type="line"/>
			<point x="431" y="-67" type="line"/>
		</contour>
		<contour>
			<point x="291" y="1567" type="line"/>
			<point x="446" y="1567" type="line"/>
			<point x="444" y="1382" type="line"/>
			<point x="432" y="1386" type="line"/>
			<point x="427" y="762" type="line"/>
			<point x="299" y="831" type="line"/>
			<point x="303" y="1384" type="line"/>
			<point x="288" y="1389" type="line"/>
		</contour>
	</outline>
</glyph>
<glyph name="franc" format="2">
  <advance width="846"/>
  <unicode hex="20A3"/>
  <outline>
    <contour>
      <point x="65" y="0" type="line"/>
      <point x="65" y="100" type="line"/>
      <point x="273" y="137" type="line"/>
      <point x="275" y="760" type="line"/>
      <point x="273" y="1352" type="line"/>
      <point x="65" y="1386" type="line"/>
      <point x="65" y="1500" type="line"/>
      <point x="762" y="1500" type="line"/>
      <point x="822" y="1150" type="line"/>
      <point x="712" y="1150" type="line"/>
      <point x="617" y="1382" type="line"/>
      <point x="483" y="1382" type="line"/>
      <point x="453" y="1362" type="line"/>
      <point x="451" y="772" type="line"/>
      <point x="453" y="132" type="line"/>
      <point x="681" y="100" type="line"/>
      <point x="681" y="0" type="line"/>
    </contour>
    <contour>
      <point x="363" y="731" type="line"/>
      <point x="363" y="833" type="line"/>
      <point x="561" y="840" type="line"/>
      <point x="596" y="982" type="line"/>
      <point x="706" y="982" type="line"/>
      <point x="706" y="586" type="line"/>
      <point x="596" y="586" type="line"/>
      <point x="561" y="724" type="line"/>
    </contour>
    <contour>
      <point x="158" y="331" type="line"/>
      <point x="139" y="457" type="line"/>
      <point x="638" y="457" type="line"/>
      <point x="631" y="331" type="line"/>
    </contour>
  </outline>
</glyph>
<glyph name="lira" format="2">
  <advance width="520"/>
  <unicode hex="20A4"/>
  <outline>
    <contour>
      <point x="300" y="552" type="qcurve" smooth="yes"/>
      <point x="300" y="414"/>
      <point x="244" y="185"/>
      <point x="225" y="141" type="qcurve"/>
      <point x="233" y="116" type="line"/>
      <point x="232" y="108" type="line"/>
      <point x="366" y="372" type="line"/>
      <point x="478" y="372" type="line"/>
      <point x="379" y="0" type="line"/>
      <point x="70" y="0" type="line"/>
      <point x="10" y="100" type="line"/>
      <point x="39" y="125" type="line"/>
      <point x="69" y="115"/>
      <point x="124" y="346"/>
      <point x="124" y="430" type="qcurve" smooth="yes"/>
      <point x="124" y="524"/>
      <point x="110" y="676"/>
      <point x="99" y="747" type="qcurve" smooth="yes"/>
      <point x="85" y="842"/>
      <point x="59" y="1039"/>
      <point x="59" y="1146" type="qcurve" smooth="yes"/>
      <point x="59" y="1279"/>
      <point x="196" y="1501"/>
      <point x="299" y="1501" type="qcurve" smooth="yes"/>
      <point x="348" y="1501"/>
      <point x="426" y="1397"/>
      <point x="456" y="1301" type="qcurve"/>
      <point x="356" y="1222" type="line"/>
      <point x="345" y="1279"/>
      <point x="312" y="1371"/>
      <point x="288" y="1371" type="qcurve" smooth="yes"/>
      <point x="261" y="1371"/>
      <point x="234" y="1246"/>
      <point x="234" y="1163" type="qcurve" smooth="yes"/>
      <point x="234" y="1087"/>
      <point x="257" y="923"/>
      <point x="270" y="836" type="qcurve" smooth="yes"/>
      <point x="282" y="759"/>
      <point x="300" y="609"/>
    </contour>
    <contour>
      <point x="56" y="521" type="line"/>
      <point x="44" y="652" type="line"/>
      <point x="377" y="652" type="line"/>
      <point x="358" y="521" type="line"/>
    </contour>
    <contour>
      <point x="16" y="786" type="line"/>
      <point x="4" y="917" type="line"/>
      <point x="415" y="917" type="line"/>
      <point x="397" y="786" type="line"/>
    </contour>
  </outline>
</glyph>
<glyph name="naira" format="2">
	<unicode hex="20A6"/>
	<advance width="767"/>
	<outline>
		<contour>
			<point x="1" y="0" type="line"/>
			<point x="1" y="100" type="line"/>
			<point x="209" y="135" type="line"/>
			<point x="211" y="754" type="line"/>
			<point x="209" y="1352" type="line"/>
			<point x="1" y="1386" type="line"/>
			<point x="1" y="1500" type="line"/>
			<point x="427" y="1500" type="line"/>
			<point x="460" y="823" type="line"/>
			<point x="477" y="292" type="line"/>
			<point x="477" y="754" type="line"/>
			<point x="470" y="1352" type="line"/>
			<point x="242" y="1386" type="line"/>
			<point x="242" y="1500" type="line"/>
			<point x="798" y="1500" type="line"/>
			<point x="798" y="1386" type="line"/>
			<point x="589" y="1352" type="line"/>
			<point x="588" y="754" type="line"/>
			<point x="584" y="0" type="line"/>
			<point x="454" y="0" type="line"/>
			<point x="368" y="812" type="line"/>
			<point x="329" y="1319" type="line"/>
			<point x="322" y="754" type="line"/>
			<point x="329" y="135" type="line"/>
			<point x="547" y="100" type="line"/>
			<point x="547" y="0" type="line"/>
		</contour>
		<contour>
			<point x="710" y="539" type="line"/>
			<point x="522" y="539" type="line"/>
			<point x="522" y="553" type="line"/>
			<point x="444" y="553" type="line"/>
			<point x="426" y="664" type="line"/>
			<point x="522" y="664" type="line"/>
			<point x="522" y="677" type="line"/>
			<point x="683" y="677" type="line"/>
		</contour>
		<contour>
			<point x="51" y="539" type="line"/>
			<point x="35" y="677" type="line"/>
			<point x="275" y="677" type="line"/>
			<point x="275" y="665" type="line"/>
			<point x="426" y="665" type="line"/>
			<point x="445" y="547" type="line"/>
			<point x="275" y="547" type="line"/>
			<point x="275" y="539" type="line"/>
		</contour>
		<contour>
			<point x="710" y="891" type="line"/>
			<point x="522" y="891" type="line"/>
			<point x="522" y="900" type="line"/>
			<point x="416" y="900" type="line"/>
			<point x="397" y="1018" type="line"/>
			<point x="522" y="1018" type="line"/>
			<point x="522" y="1029" type="line"/>
			<point x="683" y="1029" type="line"/>
		</contour>
		<contour>
			<point x="51" y="891" type="line"/>
			<point x="35" y="1029" type="line"/>
			<point x="275" y="1029" type="line"/>
			<point x="275" y="1012" type="line"/>
			<point x="397" y="1012" type="line"/>
			<point x="416" y="901" type="line"/>
			<point x="275" y="901" type="line"/>
			<point x="275" y="891" type="line"/>
		</contour>
	</outline>
</glyph>
<glyph name="peseta" format="2">
  <advance width="1307"/>
  <unicode hex="20A7"/>
  <outline>
    <contour>
      <point x="82" y="0" type="line"/>
      <point x="82" y="100" type="line"/>
      <point x="290" y="137" type="line"/>
      <point x="292" y="754" type="line"/>
      <point x="290" y="1352" type="line"/>
      <point x="82" y="1386" type="line"/>
      <point x="82" y="1500" type="line"/>
      <point x="460" y="1500" type="line" smooth="yes"/>
      <point x="560" y="1500"/>
      <point x="682" y="1277"/>
      <point x="682" y="1127" type="qcurve" smooth="yes"/>
      <point x="682" y="908"/>
      <point x="577" y="660"/>
      <point x="482" y="660" type="qcurve" smooth="yes"/>
      <point x="463" y="660"/>
      <point x="401" y="677"/>
      <point x="388" y="687" type="qcurve"/>
      <point x="397" y="793" type="line"/>
      <point x="429" y="782"/>
      <point x="472" y="772"/>
      <point x="473" y="772" type="qcurve" smooth="yes"/>
      <point x="482" y="772"/>
      <point x="492" y="946"/>
      <point x="492" y="1099" type="qcurve" smooth="yes"/>
      <point x="492" y="1240"/>
      <point x="481" y="1382"/>
      <point x="473" y="1382" type="qcurve" smooth="yes"/>
      <point x="475" y="1382" type="line"/>
      <point x="468" y="1362" type="line"/>
      <point x="468" y="820" type="line"/>
      <point x="470" y="132" type="line"/>
      <point x="678" y="100" type="line"/>
      <point x="678" y="0" type="line"/>
    </contour>
    <contour>
      <point x="559" y="832" type="line"/>
      <point x="559" y="906" type="line"/>
      <point x="699" y="925"/>
      <point x="726" y="1135"/>
      <point x="732" y="1236" type="qcurve"/>
      <point x="779" y="1236" type="line"/>
      <point x="834" y="1188" type="line"/>
      <point x="815" y="924" type="line"/>
      <point x="916" y="924" type="line"/>
      <point x="916" y="822" type="line"/>
      <point x="808" y="822" type="line"/>
      <point x="802" y="613" type="line"/>
      <point x="802" y="216" type="line" smooth="yes"/>
      <point x="802" y="161"/>
      <point x="824" y="109"/>
      <point x="884" y="109" type="qcurve" smooth="yes"/>
      <point x="919" y="109" type="line"/>
      <point x="919" y="29" type="line"/>
      <point x="769" y="-8" type="line"/>
      <point x="692" y="-8"/>
      <point x="634" y="73"/>
      <point x="634" y="163" type="qcurve"/>
      <point x="636" y="527" type="line"/>
      <point x="634" y="780" type="line"/>
    </contour>
    <contour>
      <point x="895" y="0" type="line"/>
      <point x="895" y="339" type="line"/>
      <point x="1002" y="339" type="line"/>
      <point x="1012" y="280" type="line" smooth="yes"/>
      <point x="1027" y="196"/>
      <point x="1042" y="89"/>
      <point x="1062" y="89" type="qcurve" smooth="yes"/>
      <point x="1081" y="89"/>
      <point x="1104" y="177"/>
      <point x="1104" y="260" type="qcurve" smooth="yes"/>
      <point x="1104" y="344"/>
      <point x="1058" y="426"/>
      <point x="1010" y="474" type="qcurve" smooth="yes"/>
      <point x="968" y="518"/>
      <point x="912" y="661"/>
      <point x="912" y="759" type="qcurve" smooth="yes"/>
      <point x="912" y="879"/>
      <point x="1012" y="1022"/>
      <point x="1068" y="1022" type="qcurve" smooth="yes"/>
      <point x="1091" y="1022"/>
      <point x="1122" y="989"/>
      <point x="1131" y="959" type="qcurve"/>
      <point x="1167" y="1000" type="line"/>
      <point x="1238" y="1000" type="line"/>
      <point x="1238" y="704" type="line"/>
      <point x="1129" y="704" type="line"/>
      <point x="1128" y="797" type="line" smooth="yes"/>
      <point x="1127" y="852"/>
      <point x="1112" y="911"/>
      <point x="1094" y="911" type="qcurve" smooth="yes"/>
      <point x="1081" y="911"/>
      <point x="1059" y="838"/>
      <point x="1059" y="790" type="qcurve" smooth="yes"/>
      <point x="1059" y="729"/>
      <point x="1093" y="650"/>
      <point x="1112" y="615" type="qcurve" smooth="yes"/>
      <point x="1159" y="560"/>
      <point x="1262" y="421"/>
      <point x="1262" y="287" type="qcurve" smooth="yes"/>
      <point x="1262" y="150"/>
      <point x="1172" y="-21"/>
      <point x="1107" y="-21" type="qcurve" smooth="yes"/>
      <point x="1086" y="-21"/>
      <point x="1042" y="23"/>
      <point x="1025" y="73" type="qcurve"/>
      <point x="986" y="0" type="line"/>
    </contour>
  </outline>
</glyph>
<glyph name="won" format="2">
  <advance width="1105"/>
  <unicode hex="20A9"/>
  <outline>
    <contour>
      <point x="0" y="1386" type="line"/>
      <point x="0" y="1500" type="line"/>
      <point x="524" y="1500" type="line"/>
      <point x="524" y="1386" type="line"/>
      <point x="366" y="1345" type="line"/>
      <point x="376" y="799" type="line"/>
      <point x="384" y="256" type="line"/>
      <point x="432" y="670" type="line"/>
      <point x="516" y="1306" type="line"/>
      <point x="578" y="1141" type="line"/>
      <point x="504" y="622" type="line"/>
      <point x="418" y="-8" type="line"/>
      <point x="303" y="-8" type="line"/>
      <point x="231" y="739" type="line"/>
      <point x="168" y="1347" type="line"/>
    </contour>
    <contour>
      <point x="289" y="1394" type="line"/>
      <point x="289" y="1500" type="line"/>
      <point x="823" y="1500" type="line"/>
      <point x="823" y="1394" type="line"/>
      <point x="655" y="1353" type="line"/>
      <point x="686" y="800" type="line"/>
      <point x="710" y="256" type="line"/>
      <point x="766" y="810" type="line"/>
      <point x="815" y="1352" type="line"/>
      <point x="623" y="1386" type="line"/>
      <point x="623" y="1500" type="line"/>
      <point x="1155" y="1500" type="line"/>
      <point x="1155" y="1386" type="line"/>
      <point x="967" y="1347" type="line"/>
      <point x="880" y="766" type="line"/>
      <point x="757" y="-8" type="line"/>
      <point x="635" y="-8" type="line"/>
      <point x="537" y="736" type="line"/>
      <point x="457" y="1355" type="line"/>
    </contour>
    <contour>
      <point x="1064" y="535" type="line"/>
      <point x="773" y="535" type="line"/>
      <point x="773" y="561" type="line"/>
      <point x="622" y="561" type="line"/>
      <point x="609" y="663" type="line"/>
      <point x="812" y="663" type="line"/>
      <point x="812" y="682" type="line"/>
      <point x="1103" y="682" type="line"/>
    </contour>
    <contour>
      <point x="1097" y="886" type="line"/>
      <point x="821" y="886" type="line"/>
      <point x="821" y="908" type="line"/>
      <point x="579" y="908" type="line"/>
      <point x="565" y="1015" type="line"/>
      <point x="861" y="1015" type="line"/>
      <point x="861" y="1034" type="line"/>
      <point x="1145" y="1034" type="line"/>
    </contour>
    <contour>
      <point x="126" y="535" type="line"/>
      <point x="104" y="682" type="line"/>
      <point x="292" y="682" type="line"/>
      <point x="292" y="663" type="line"/>
      <point x="609" y="663" type="line"/>
      <point x="622" y="561" type="line"/>
      <point x="314" y="561" type="line"/>
      <point x="314" y="535" type="line"/>
    </contour>
    <contour>
      <point x="77" y="886" type="line"/>
      <point x="50" y="1034" type="line"/>
      <point x="262" y="1034" type="line"/>
      <point x="262" y="1015" type="line"/>
      <point x="566" y="1015" type="line"/>
      <point x="583" y="908" type="line"/>
      <point x="284" y="908" type="line"/>
      <point x="284" y="886" type="line"/>
    </contour>
  </outline>
</glyph>
<glyph name="dong" format="2">
  <advance width="685"/>
  <unicode hex="20AB"/>
  <outline>
    <contour>
      <point x="68" y="478" type="qcurve" smooth="yes"/>
      <point x="68" y="722"/>
      <point x="163" y="1020"/>
      <point x="238" y="1020" type="qcurve" smooth="yes"/>
      <point x="265" y="1020"/>
      <point x="306" y="986"/>
      <point x="333" y="939" type="qcurve"/>
      <point x="323" y="1399" type="line"/>
      <point x="155" y="1406" type="line"/>
      <point x="155" y="1500" type="line"/>
      <point x="434" y="1534" type="line"/>
      <point x="465" y="1534" type="line"/>
      <point x="493" y="1502" type="line"/>
      <point x="490" y="538" type="line"/>
      <point x="499" y="172" type="line"/>
      <point x="676" y="182" type="line"/>
      <point x="676" y="102" type="line"/>
      <point x="386" y="0" type="line"/>
      <point x="351" y="142" type="line"/>
      <point x="335" y="149" type="line"/>
      <point x="319" y="75"/>
      <point x="262" y="-9"/>
      <point x="220" y="-9" type="qcurve" smooth="yes"/>
      <point x="151" y="-9"/>
      <point x="68" y="254"/>
    </contour>
    <contour>
      <point x="250" y="503" type="qcurve" smooth="yes"/>
      <point x="250" y="320"/>
      <point x="271" y="117"/>
      <point x="295" y="117" type="qcurve" smooth="yes"/>
      <point x="305" y="117"/>
      <point x="328" y="202"/>
      <point x="333" y="262" type="qcurve"/>
      <point x="339" y="524" type="line"/>
      <point x="339" y="795" type="line"/>
      <point x="334" y="850"/>
      <point x="311" y="917"/>
      <point x="298" y="917" type="qcurve" smooth="yes"/>
      <point x="276" y="917"/>
      <point x="250" y="678"/>
    </contour>
    <contour>
      <point x="125" y="-276" type="line"/>
      <point x="125" y="-124" type="line"/>
      <point x="349" y="-128" type="line"/>
      <point x="557" y="-124" type="line"/>
      <point x="557" y="-276" type="line"/>
      <point x="349" y="-272" type="line"/>
    </contour>
    <contour>
      <point x="240" y="1119" type="line"/>
      <point x="240" y="1250" type="line"/>
      <point x="432" y="1247" type="line"/>
      <point x="559" y="1250" type="line"/>
      <point x="559" y="1119" type="line"/>
      <point x="432" y="1123" type="line"/>
    </contour>
  </outline>
</glyph>
<glyph name="Euro" format="2">
	<unicode hex="20AC"/>
	<advance width="627"/>
	<outline>
		<contour>
			<point x="190" y="746" type="qcurve" smooth="yes"/>
			<point x="190" y="1147"/>
			<point x="347" y="1520"/>
			<point x="455" y="1520" type="qcurve" smooth="yes"/>
			<point x="498" y="1520"/>
			<point x="570" y="1450"/>
			<point x="584" y="1378" type="qcurve"/>
			<point x="502" y="1303" type="line"/>
			<point x="492" y="1350"/>
			<point x="473" y="1390"/>
			<point x="454" y="1390" type="qcurve" smooth="yes"/>
			<point x="417" y="1390"/>
			<point x="373" y="1108"/>
			<point x="372" y="772" type="qcurve" smooth="yes"/>
			<point x="373" y="453"/>
			<point x="419" y="83"/>
			<point x="460" y="83" type="qcurve" smooth="yes"/>
			<point x="473" y="83"/>
			<point x="503" y="143"/>
			<point x="513" y="198" type="qcurve"/>
			<point x="590" y="133" type="line"/>
			<point x="576" y="52"/>
			<point x="499" y="-30"/>
			<point x="434" y="-30" type="qcurve" smooth="yes"/>
			<point x="329" y="-30"/>
			<point x="190" y="345"/>
		</contour>
		<contour>
			<point x="68" y="858" type="line"/>
			<point x="92" y="994" type="line"/>
			<point x="491" y="994" type="line"/>
			<point x="499" y="858" type="line"/>
		</contour>
		<contour>
			<point x="53" y="531" type="line"/>
			<point x="49" y="667" type="line"/>
			<point x="497" y="667" type="line"/>
			<point x="487" y="531" type="line"/>
		</contour>
	</outline>
</glyph>
<glyph name="kip" format="2">
  <advance width="882"/>
  <unicode hex="20AD"/>
  <outline>
    <contour>
      <point x="82" y="0" type="line"/>
      <point x="82" y="100" type="line"/>
      <point x="280" y="135" type="line"/>
      <point x="282" y="754" type="line"/>
      <point x="280" y="1352" type="line"/>
      <point x="82" y="1386" type="line"/>
      <point x="82" y="1500" type="line"/>
      <point x="638" y="1500" type="line"/>
      <point x="638" y="1386" type="line"/>
      <point x="460" y="1352" type="line"/>
      <point x="458" y="754" type="line"/>
      <point x="460" y="135" type="line"/>
      <point x="648" y="100" type="line"/>
      <point x="648" y="0" type="line"/>
    </contour>
    <contour>
      <point x="369" y="562" type="line"/>
      <point x="369" y="694" type="line"/>
      <point x="516" y="1338" type="line"/>
      <point x="369" y="1386" type="line"/>
      <point x="369" y="1500" type="line"/>
      <point x="835" y="1500" type="line"/>
      <point x="835" y="1386" type="line"/>
      <point x="677" y="1338" type="line"/>
      <point x="484" y="779" type="line"/>
      <point x="442" y="779" type="line"/>
    </contour>
    <contour>
      <point x="449" y="777" type="line"/>
      <point x="536" y="902" type="line"/>
      <point x="762" y="135" type="line"/>
      <point x="899" y="100" type="line"/>
      <point x="899" y="0" type="line"/>
      <point x="408" y="0" type="line"/>
      <point x="408" y="100" type="line"/>
      <point x="556" y="135" type="line"/>
    </contour>
    <contour>
      <point x="660" y="735" type="line"/>
      <point x="565" y="735" type="line"/>
      <point x="565" y="761" type="line"/>
      <point x="607" y="761" type="line"/>
      <point x="536" y="863" type="line"/>
      <point x="471" y="863" type="line"/>
      <point x="471" y="882" type="line"/>
      <point x="633" y="882" type="line"/>
    </contour>
    <contour>
      <point x="189" y="735" type="line"/>
      <point x="173" y="881" type="line"/>
      <point x="367" y="881" type="line"/>
      <point x="367" y="863" type="line"/>
      <point x="536" y="863" type="line"/>
      <point x="607" y="761" type="line"/>
      <point x="367" y="761" type="line"/>
      <point x="367" y="735" type="line"/>
    </contour>
  </outline>
</glyph>
<glyph name="peso" format="2">
	<unicode hex="20B1"/>
	<advance width="793"/>
	<outline>
		<contour>
			<point x="66" y="0" type="line"/>
			<point x="66" y="100" type="line"/>
			<point x="259" y="137" type="line"/>
			<point x="261" y="754" type="line"/>
			<point x="259" y="1357" type="line"/>
			<point x="66" y="1386" type="line"/>
			<point x="66" y="1500" type="line"/>
			<point x="433" y="1500" type="line" smooth="yes"/>
			<point x="588" y="1500"/>
			<point x="726" y="1235"/>
			<point x="726" y="1002" type="qcurve" smooth="yes"/>
			<point x="726" y="769"/>
			<point x="605" y="459"/>
			<point x="477" y="459" type="qcurve" smooth="yes"/>
			<point x="426" y="459"/>
			<point x="386" y="482"/>
			<point x="357" y="498" type="qcurve"/>
			<point x="366" y="604" type="line"/>
			<point x="415" y="591"/>
			<point x="458" y="572"/>
			<point x="473" y="572" type="qcurve" smooth="yes"/>
			<point x="508" y="572"/>
			<point x="540" y="805"/>
			<point x="540" y="1002" type="qcurve" smooth="yes"/>
			<point x="540" y="1199"/>
			<point x="512" y="1383"/>
			<point x="477" y="1382" type="qcurve" smooth="yes"/>
			<point x="448" y="1382" type="line"/>
			<point x="440" y="1360" type="line"/>
			<point x="437" y="764" type="line"/>
			<point x="439" y="132" type="line"/>
			<point x="657" y="100" type="line"/>
			<point x="657" y="0" type="line"/>
		</contour>
		<contour>
			<point x="773" y="764" type="line"/>
			<point x="618" y="764" type="line"/>
			<point x="618" y="775" type="line"/>
			<point x="630" y="775" type="line"/>
			<point x="658" y="892" type="line"/>
			<point x="648" y="892" type="line"/>
			<point x="648" y="905" type="line"/>
			<point x="788" y="905" type="line"/>
		</contour>
		<contour>
			<point x="142" y="762" type="line"/>
			<point x="125" y="904" type="line"/>
			<point x="340" y="904" type="line"/>
			<point x="340" y="892" type="line"/>
			<point x="658" y="892" type="line"/>
			<point x="630" y="775" type="line"/>
			<point x="340" y="775" type="line"/>
			<point x="340" y="762" type="line"/>
		</contour>
		<contour>
			<point x="802" y="1070" type="line"/>
			<point x="656" y="1070" type="line"/>
			<point x="656" y="1081" type="line"/>
			<point x="659" y="1081" type="line"/>
			<point x="660" y="1198" type="line"/>
			<point x="636" y="1198" type="line"/>
			<point x="636" y="1211" type="line"/>
			<point x="818" y="1211" type="line"/>
		</contour>
		<contour>
			<point x="142" y="1069" type="line"/>
			<point x="125" y="1211" type="line"/>
			<point x="340" y="1211" type="line"/>
			<point x="340" y="1198" type="line"/>
			<point x="660" y="1198" type="line"/>
			<point x="659" y="1081" type="line"/>
			<point x="340" y="1081" type="line"/>
			<point x="340" y="1069" type="line"/>
		</contour>
	</outline>
</glyph>
<glyph name="guarani" format="2">
	<unicode hex="20B2"/>
	<advance width="759"/>
	<outline>
		<contour>
			<point x="80" y="744" type="qcurve" smooth="yes"/>
			<point x="80" y="1065"/>
			<point x="252" y="1520"/>
			<point x="380" y="1520" type="qcurve" smooth="yes"/>
			<point x="485" y="1520"/>
			<point x="624" y="1286"/>
			<point x="632" y="1058" type="qcurve"/>
			<point x="490" y="1058" type="line"/>
			<point x="485" y="1213"/>
			<point x="437" y="1394"/>
			<point x="389" y="1394" type="qcurve" smooth="yes"/>
			<point x="329" y="1394"/>
			<point x="269" y="1041"/>
			<point x="270" y="768" type="qcurve" smooth="yes"/>
			<point x="270" y="475"/>
			<point x="351" y="112"/>
			<point x="396" y="112" type="qcurve" smooth="yes"/>
			<point x="437" y="112"/>
			<point x="493" y="219"/>
			<point x="493" y="353" type="qcurve" smooth="yes"/>
			<point x="493" y="398" type="line" smooth="yes"/>
			<point x="493" y="470"/>
			<point x="446" y="551"/>
			<point x="354" y="563" type="qcurve"/>
			<point x="362" y="668" type="line"/>
			<point x="639" y="668" type="line"/>
			<point x="655" y="229" type="line"/>
			<point x="616" y="133"/>
			<point x="481" y="-13"/>
			<point x="391" y="-13" type="qcurve" smooth="yes"/>
			<point x="277" y="-13"/>
			<point x="80" y="394"/>
		</contour>
		<contour>
			<point x="261" y="-127" type="line"/>
			<point x="274" y="84" type="line"/>
			<point x="293" y="80" type="line"/>
			<point x="333" y="876" type="line"/>
			<point x="456" y="811" type="line"/>
			<point x="420" y="56" type="line"/>
			<point x="441" y="52" type="line"/>
			<point x="431" y="-108" type="line"/>
		</contour>
		<contour>
			<point x="348" y="1627" type="line"/>
			<point x="519" y="1633" type="line"/>
			<point x="506" y="1438" type="line"/>
			<point x="484" y="1440" type="line"/>
			<point x="456" y="811" type="line"/>
			<point x="333" y="876" type="line"/>
			<point x="359" y="1464" type="line"/>
			<point x="338" y="1468" type="line"/>
		</contour>
	</outline>
</glyph>
<glyph name="hryvnia" format="2">
  <advance width="572"/>
  <unicode hex="20B4"/>
  <outline>
    <contour>
      <point x="295" y="1" type="qcurve" smooth="yes"/>
      <point x="204" y="1"/>
      <point x="123" y="215"/>
      <point x="123" y="372" type="qcurve" smooth="yes"/>
      <point x="123" y="426"/>
      <point x="128" y="519"/>
      <point x="134" y="559" type="qcurve"/>
      <point x="142" y="591" type="line"/>
      <point x="163" y="645"/>
      <point x="176" y="706"/>
      <point x="220" y="802" type="qcurve" smooth="yes"/>
      <point x="253" y="880"/>
      <point x="230" y="918"/>
      <point x="232" y="947" type="qcurve"/>
      <point x="246" y="969" type="line"/>
      <point x="254" y="1008"/>
      <point x="260" y="1103"/>
      <point x="260" y="1162" type="qcurve" smooth="yes"/>
      <point x="260" y="1258"/>
      <point x="236" y="1371"/>
      <point x="220" y="1371" type="qcurve" smooth="yes"/>
      <point x="207" y="1371"/>
      <point x="189" y="1307"/>
      <point x="178" y="1267" type="qcurve"/>
      <point x="82" y="1373" type="line"/>
      <point x="119" y="1434"/>
      <point x="206" y="1501"/>
      <point x="248" y="1501" type="qcurve" smooth="yes"/>
      <point x="332" y="1501"/>
      <point x="444" y="1318"/>
      <point x="444" y="1134" type="qcurve" smooth="yes"/>
      <point x="444" y="1082"/>
      <point x="424" y="994"/>
      <point x="418" y="958" type="qcurve"/>
      <point x="407" y="926" type="line"/>
      <point x="393" y="887"/>
      <point x="406" y="831"/>
      <point x="361" y="743" type="qcurve" smooth="yes"/>
      <point x="338" y="685"/>
      <point x="322" y="622"/>
      <point x="314" y="569" type="qcurve"/>
      <point x="313" y="547" type="line"/>
      <point x="308" y="511"/>
      <point x="307" y="429"/>
      <point x="307" y="385" type="qcurve" smooth="yes"/>
      <point x="307" y="246"/>
      <point x="319" y="122"/>
      <point x="326" y="122" type="qcurve" smooth="yes"/>
      <point x="340" y="122"/>
      <point x="354" y="256"/>
      <point x="363" y="345" type="qcurve"/>
      <point x="490" y="272" type="line"/>
      <point x="457" y="143"/>
      <point x="366" y="1"/>
    </contour>
    <contour>
      <point x="50" y="858" type="line"/>
      <point x="51" y="994" type="line"/>
      <point x="475" y="994" type="line"/>
      <point x="483" y="858" type="line"/>
    </contour>
    <contour>
      <point x="51" y="531" type="line"/>
      <point x="50" y="667" type="line"/>
      <point x="482" y="667" type="line"/>
      <point x="463" y="531" type="line"/>
    </contour>
  </outline>
</glyph>
<glyph name="cedi" format="2">
  <advance width="612"/>
  <unicode hex="20B5"/>
  <outline>
    <contour>
      <point x="114" y="691" type="qcurve" smooth="yes"/>
      <point x="114" y="993"/>
      <point x="260" y="1448"/>
      <point x="393" y="1448" type="qcurve" smooth="yes"/>
      <point x="477" y="1448"/>
      <point x="590" y="1209"/>
      <point x="592" y="993" type="qcurve"/>
      <point x="455" y="993" type="line"/>
      <point x="453" y="1150"/>
      <point x="426" y="1331"/>
      <point x="390" y="1331" type="qcurve" smooth="yes"/>
      <point x="352" y="1331"/>
      <point x="306" y="1009"/>
      <point x="307" y="728" type="qcurve" smooth="yes"/>
      <point x="306" y="457"/>
      <point x="356" y="169"/>
      <point x="392" y="169" type="qcurve" smooth="yes"/>
      <point x="420" y="169"/>
      <point x="460" y="268"/>
      <point x="472" y="353" type="qcurve"/>
      <point x="602" y="277" type="line"/>
      <point x="571" y="169"/>
      <point x="455" y="18"/>
      <point x="390" y="18" type="qcurve" smooth="yes"/>
      <point x="255" y="18"/>
      <point x="114" y="426"/>
    </contour>
    <contour>
      <point x="307" y="-149" type="line"/>
      <point x="303" y="87" type="line"/>
      <point x="324" y="82" type="line"/>
      <point x="315" y="831" type="line"/>
      <point x="443" y="762" type="line"/>
      <point x="450" y="55" type="line"/>
      <point x="473" y="50" type="line"/>
      <point x="477" y="-137" type="line"/>
    </contour>
    <contour>
      <point x="284" y="1568" type="line"/>
      <point x="455" y="1568" type="line"/>
      <point x="457" y="1383" type="line"/>
      <point x="436" y="1387" type="line"/>
      <point x="443" y="762" type="line"/>
      <point x="315" y="831" type="line"/>
      <point x="309" y="1415" type="line"/>
      <point x="286" y="1420" type="line"/>
    </contour>
  </outline>
</glyph>
<glyph name="tenge" format="2">
  <advance width="644"/>
  <unicode hex="20B8"/>
  <outline>
    <contour>
      <point x="52" y="1364" type="line"/>
      <point x="76" y="1500" type="line"/>
      <point x="560" y="1500" type="line"/>
      <point x="590" y="1364" type="line"/>
    </contour>
    <contour>
      <point x="50" y="732" type="line"/>
      <point x="50" y="1180" type="line"/>
      <point x="594" y="1180" type="line"/>
      <point x="594" y="732" type="line"/>
      <point x="484" y="732" type="line"/>
      <point x="449" y="1062" type="line"/>
      <point x="431" y="1062" type="line"/>
      <point x="412" y="1042" type="line"/>
      <point x="410" y="594" type="line"/>
      <point x="412" y="136" type="line"/>
      <point x="630" y="100" type="line"/>
      <point x="630" y="0" type="line"/>
      <point x="14" y="0" type="line"/>
      <point x="14" y="100" type="line"/>
      <point x="232" y="136" type="line"/>
      <point x="234" y="594" type="line"/>
      <point x="232" y="1042" type="line"/>
      <point x="223" y="1062" type="line"/>
      <point x="195" y="1062" type="line"/>
      <point x="160" y="732" type="line"/>
    </contour>
  </outline>
</glyph>
<glyph name="rupeeIndian" format="2">
  <advance width="385"/>
  <unicode hex="20B9"/>
  <outline>
    <contour>
      <point x="-37" y="1514" type="line"/>
      <point x="216" y="1495" type="line"/>
      <point x="427" y="1517" type="line"/>
      <point x="410" y="1365" type="line"/>
      <point x="288" y="1379" type="line"/>
      <point x="302" y="1336"/>
      <point x="315" y="1220"/>
      <point x="315" y="1149" type="qcurve" smooth="yes"/>
      <point x="315" y="994"/>
      <point x="248" y="779"/>
      <point x="200" y="748" type="qcurve"/>
      <point x="246" y="642"/>
      <point x="294" y="433"/>
      <point x="311" y="335" type="qcurve" smooth="yes"/>
      <point x="336" y="184"/>
      <point x="381" y="114"/>
      <point x="418" y="120" type="qcurve"/>
      <point x="418" y="20" type="line"/>
      <point x="342" y="-6" type="line"/>
      <point x="304" y="1"/>
      <point x="167" y="116"/>
      <point x="143" y="274" type="qcurve" smooth="yes"/>
      <point x="119" y="450"/>
      <point x="64" y="660"/>
      <point x="48" y="725" type="qcurve"/>
      <point x="60" y="712" type="line"/>
      <point x="20" y="845" type="line"/>
      <point x="45" y="845" type="line" smooth="yes"/>
      <point x="82" y="845"/>
      <point x="117" y="1005"/>
      <point x="117" y="1137" type="qcurve" smooth="yes"/>
      <point x="117" y="1227"/>
      <point x="89" y="1360"/>
      <point x="69" y="1386" type="qcurve"/>
      <point x="-8" y="1372" type="line"/>
    </contour>
    <contour>
      <point x="230" y="1150" type="line"/>
      <point x="230" y="1165" type="line"/>
      <point x="365" y="1165" type="line"/>
      <point x="345" y="1024" type="line"/>
      <point x="216" y="1024" type="line"/>
      <point x="216" y="1038" type="line"/>
      <point x="3" y="1035" type="line"/>
      <point x="-17" y="1174" type="line"/>
    </contour>
  </outline>
</glyph>
<glyph name="liraTurkish" format="2">
  <advance width="612"/>
  <unicode hex="20BA"/>
  <outline>
    <contour>
      <point x="239" y="-29" type="line"/>
      <point x="152" y="47" type="line"/>
      <point x="193" y="132" type="line"/>
      <point x="205" y="624" type="line"/>
      <point x="193" y="1352" type="line"/>
      <point x="15" y="1366" type="line"/>
      <point x="15" y="1500" type="line"/>
      <point x="249" y="1503" type="line"/>
      <point x="599" y="1520" type="line"/>
      <point x="612" y="1401" type="line"/>
      <point x="373" y="1342" type="line"/>
      <point x="359" y="686" type="line"/>
      <point x="367" y="159" type="line"/>
      <point x="374" y="132" type="line"/>
      <point x="396" y="184"/>
      <point x="446" y="369"/>
      <point x="455" y="564" type="qcurve" smooth="yes"/>
      <point x="463" y="758" type="line"/>
      <point x="597" y="758" type="line"/>
      <point x="574" y="400" type="line"/>
      <point x="526" y="246"/>
      <point x="361" y="18"/>
      <point x="293" y="-8" type="qcurve" smooth="yes"/>
    </contour>
    <contour>
      <point x="133" y="525" type="line"/>
      <point x="97" y="658" type="line"/>
      <point x="294" y="726" type="line"/>
      <point x="294" y="722" type="line"/>
      <point x="435" y="789" type="line"/>
      <point x="430" y="642" type="line"/>
      <point x="293" y="584" type="line"/>
      <point x="293" y="580" type="line"/>
    </contour>
    <contour>
      <point x="135" y="845" type="line"/>
      <point x="99" y="981" type="line"/>
      <point x="297" y="1049" type="line"/>
      <point x="297" y="1046" type="line"/>
      <point x="487" y="1116" type="line"/>
      <point x="478" y="964" type="line"/>
      <point x="296" y="902" type="line"/>
      <point x="296" y="900" type="line"/>
    </contour>
  </outline>
</glyph>
<glyph name="manat" format="2">
  <advance width="1018"/>
  <unicode hex="20BC"/>
  <outline>
    <contour>
      <point x="1002" y="100" type="line"/>
      <point x="1002" y="0" type="line"/>
      <point x="474" y="0" type="line"/>
      <point x="474" y="100" type="line"/>
      <point x="648" y="134" type="line"/>
      <point x="652" y="506" type="line"/>
      <point x="649" y="926" type="line" smooth="yes"/>
      <point x="649" y="1118"/>
      <point x="566" y="1286"/>
      <point x="487" y="1286" type="qcurve" smooth="yes"/>
      <point x="420" y="1286"/>
      <point x="330" y="1103"/>
      <point x="330" y="906" type="qcurve" smooth="yes"/>
      <point x="329" y="506" type="line"/>
      <point x="331" y="134" type="line"/>
      <point x="519" y="100" type="line"/>
      <point x="519" y="0" type="line"/>
      <point x="13" y="0" type="line"/>
      <point x="13" y="100" type="line"/>
      <point x="191" y="134" type="line"/>
      <point x="193" y="506" type="line"/>
      <point x="189" y="907" type="line" smooth="yes"/>
      <point x="188" y="1167"/>
      <point x="363" y="1431"/>
      <point x="507" y="1431" type="qcurve" smooth="yes"/>
      <point x="664" y="1431"/>
      <point x="839" y="1158"/>
      <point x="836" y="919" type="qcurve" smooth="yes"/>
      <point x="832" y="506" type="line"/>
      <point x="834" y="134" type="line"/>
    </contour>
    <contour>
      <point x="392" y="260" type="line"/>
      <point x="409" y="662" type="line"/>
      <point x="411" y="1350" type="line"/>
      <point x="382" y="1530" type="line"/>
      <point x="572" y="1600" type="line"/>
      <point x="544" y="1350" type="line"/>
      <point x="548" y="762" type="line"/>
      <point x="572" y="330" type="line"/>
    </contour>
  </outline>
</glyph>
<glyph name="ruble" format="2">
	<unicode hex="20BD"/>
	<advance width="702"/>
	<outline>
		<contour>
			<point x="69" y="0" type="line"/>
			<point x="69" y="100" type="line"/>
			<point x="257" y="132" type="line"/>
			<point x="259" y="754" type="line"/>
			<point x="257" y="1352" type="line"/>
			<point x="69" y="1386" type="line"/>
			<point x="69" y="1500" type="line"/>
			<point x="421" y="1500" type="line" smooth="yes"/>
			<point x="553" y="1500"/>
			<point x="686" y="1284"/>
			<point x="686" y="1088" type="qcurve" smooth="yes"/>
			<point x="686" y="886"/>
			<point x="529" y="598"/>
			<point x="427" y="598" type="qcurve" smooth="yes"/>
			<point x="342" y="598"/>
			<point x="215" y="643"/>
			<point x="184" y="649" type="qcurve"/>
			<point x="193" y="765" type="line"/>
			<point x="216" y="756"/>
			<point x="414" y="720"/>
			<point x="429" y="720" type="qcurve" smooth="yes"/>
			<point x="462" y="720"/>
			<point x="500" y="910"/>
			<point x="500" y="1070" type="qcurve" smooth="yes"/>
			<point x="500" y="1227"/>
			<point x="482" y="1382"/>
			<point x="461" y="1382" type="qcurve" smooth="yes"/>
			<point x="441" y="1382" type="line"/>
			<point x="435" y="1360" type="line"/>
			<point x="435" y="764" type="line"/>
			<point x="437" y="127" type="line"/>
			<point x="645" y="100" type="line"/>
			<point x="645" y="0" type="line"/>
		</contour>
		<contour>
			<point x="143" y="349" type="line"/>
			<point x="123" y="445" type="line"/>
			<point x="544" y="445" type="line"/>
			<point x="514" y="309" type="line"/>
		</contour>
	</outline>
</glyph>
<glyph name="bulletoperator" format="2">
  <advance width="711"/>
  <unicode hex="2219"/>
  <outline>
    <contour>
      <point x="212" y="644" type="qcurve" smooth="yes"/>
      <point x="212" y="702"/>
      <point x="293" y="788"/>
      <point x="356" y="788" type="qcurve" smooth="yes"/>
      <point x="419" y="788"/>
      <point x="500" y="702"/>
      <point x="500" y="644" type="qcurve" smooth="yes"/>
      <point x="500" y="587"/>
      <point x="419" y="501"/>
      <point x="356" y="501" type="qcurve" smooth="yes"/>
      <point x="293" y="501"/>
      <point x="212" y="587"/>
    </contour>
  </outline>
</glyph>
<glyph name="approxequal" format="2">
	<unicode hex="2248"/>
	<advance width="711"/>
	<outline>
		<contour>
			<point x="-35" y="751" type="line"/>
			<point x="25" y="842"/>
			<point x="175" y="956"/>
			<point x="252" y="956" type="qcurve"/>
			<point x="490" y="821" type="line"/>
			<point x="543" y="821"/>
			<point x="607" y="917"/>
			<point x="633" y="963" type="qcurve"/>
			<point x="723" y="911" type="line"/>
			<point x="675" y="810"/>
			<point x="562" y="666"/>
			<point x="439" y="666" type="qcurve"/>
			<point x="224" y="793" type="line"/>
			<point x="174" y="793"/>
			<point x="88" y="737"/>
			<point x="33" y="687" type="qcurve"/>
		</contour>
		<contour>
			<point x="-35" y="371" type="line"/>
			<point x="25" y="462"/>
			<point x="175" y="576"/>
			<point x="252" y="576" type="qcurve"/>
			<point x="490" y="441" type="line"/>
			<point x="543" y="441"/>
			<point x="607" y="537"/>
			<point x="633" y="583" type="qcurve"/>
			<point x="723" y="531" type="line"/>
			<point x="675" y="430"/>
			<point x="562" y="286"/>
			<point x="439" y="286" type="qcurve"/>
			<point x="224" y="413" type="line"/>
			<point x="174" y="413"/>
			<point x="88" y="357"/>
			<point x="33" y="307" type="qcurve"/>
		</contour>
	</outline>
</glyph>
<glyph name="notequal" format="2">
  <advance width="711"/>
  <unicode hex="2260"/>
  <outline>
    <contour>
      <point x="114" y="339" type="line"/>
      <point x="114" y="501" type="line"/>
      <point x="354" y="497" type="line"/>
      <point x="597" y="501" type="line"/>
      <point x="597" y="339" type="line"/>
      <point x="354" y="343" type="line"/>
    </contour>
    <contour>
      <point x="114" y="741" type="line"/>
      <point x="114" y="903" type="line"/>
      <point x="354" y="899" type="line"/>
      <point x="597" y="903" type="line"/>
      <point x="597" y="741" type="line"/>
      <point x="354" y="745" type="line"/>
    </contour>
    <contour>
      <point x="80" y="96" type="line"/>
      <point x="489" y="1211" type="line"/>
      <point x="630" y="1168" type="line"/>
      <point x="221" y="53" type="line"/>
    </contour>
  </outline>
</glyph>
<glyph name="lessequal" format="2">
	<unicode hex="2264"/>
	<advance width="711"/>
	<outline>
		<contour>
			<point x="-24" y="46" type="line"/>
			<point x="-24" y="198" type="line"/>
			<point x="723" y="198" type="line"/>
			<point x="723" y="46" type="line"/>
		</contour>
		<contour>
			<point x="9" y="701" type="qcurve"/>
			<point x="9" y="700"/>
			<point x="421" y="1030"/>
			<point x="486" y="1081" type="qcurve" smooth="yes"/>
			<point x="551" y="1132"/>
			<point x="631" y="1041"/>
			<point x="576" y="987" type="qcurve" smooth="yes"/>
			<point x="458" y="872"/>
			<point x="292" y="723"/>
			<point x="219" y="697" type="qcurve"/>
			<point x="285" y="671"/>
			<point x="473" y="504"/>
			<point x="579" y="391" type="qcurve"/>
			<point x="635" y="336"/>
			<point x="550" y="249"/>
			<point x="485" y="300" type="qcurve" smooth="yes"/>
			<point x="421" y="351"/>
			<point x="9" y="701"/>
		</contour>
	</outline>
</glyph>
<glyph name="greaterequal" format="2">
  <advance width="711"/>
  <unicode hex="2265"/>
  <outline>
    <contour>
      <point x="-12" y="46" type="line"/>
      <point x="-12" y="198" type="line"/>
      <point x="735" y="198" type="line"/>
      <point x="735" y="46" type="line"/>
    </contour>
    <contour>
      <point x="660" y="683" type="qcurve"/>
      <point x="660" y="683"/>
      <point x="248" y="352"/>
      <point x="184" y="300" type="qcurve" smooth="yes"/>
      <point x="119" y="249"/>
      <point x="37" y="339"/>
      <point x="93" y="394" type="qcurve" smooth="yes"/>
      <point x="210" y="509"/>
      <point x="378" y="660"/>
      <point x="451" y="686" type="qcurve"/>
      <point x="384" y="712"/>
      <point x="198" y="877"/>
      <point x="92" y="989" type="qcurve"/>
      <point x="36" y="1045"/>
      <point x="119" y="1132"/>
      <point x="184" y="1081" type="qcurve" smooth="yes"/>
      <point x="248" y="1031"/>
      <point x="661" y="682"/>
    </contour>
  </outline>
</glyph>
<glyph name="eight.lc" format="2">
  <advance width="429"/>
  <outline>
    <contour>
      <point x="42" y="326" type="qcurve" smooth="yes"/>
      <point x="42" y="490"/>
      <point x="131" y="678"/>
      <point x="201" y="745" type="qcurve"/>
      <point x="206" y="682" type="line"/>
      <point x="197" y="633"/>
      <point x="183" y="456"/>
      <point x="183" y="341" type="qcurve" smooth="yes"/>
      <point x="183" y="218"/>
      <point x="196" y="86"/>
      <point x="208" y="86" type="qcurve" smooth="yes"/>
      <point x="214" y="86"/>
      <point x="222" y="230"/>
      <point x="222" y="345" type="qcurve" smooth="yes"/>
      <point x="222" y="424"/>
      <point x="195" y="544"/>
      <point x="171" y="628" type="qcurve" smooth="yes"/>
      <point x="112" y="744"/>
      <point x="44" y="911"/>
      <point x="44" y="1035" type="qcurve" smooth="yes"/>
      <point x="45" y="1181"/>
      <point x="139" y="1360"/>
      <point x="210" y="1360" type="qcurve" smooth="yes"/>
      <point x="272" y="1360"/>
      <point x="356" y="1199"/>
      <point x="355" y="1081" type="qcurve" smooth="yes"/>
      <point x="354" y="963"/>
      <point x="306" y="814"/>
      <point x="215" y="716" type="qcurve"/>
      <point x="209" y="778" type="line"/>
      <point x="216" y="831"/>
      <point x="222" y="969"/>
      <point x="222" y="1055" type="qcurve" smooth="yes"/>
      <point x="222" y="1147"/>
      <point x="216" y="1248"/>
      <point x="209" y="1248" type="qcurve" smooth="yes"/>
      <point x="202" y="1248"/>
      <point x="193" y="1139"/>
      <point x="193" y="1054" type="qcurve" smooth="yes"/>
      <point x="193" y="987"/>
      <point x="231" y="868"/>
      <point x="251" y="792" type="qcurve" smooth="yes"/>
      <point x="297" y="692"/>
      <point x="387" y="504"/>
      <point x="387" y="367" type="qcurve" smooth="yes"/>
      <point x="387" y="205"/>
      <point x="287" y="-21"/>
      <point x="207" y="-21" type="qcurve" smooth="yes"/>
      <point x="129" y="-21"/>
      <point x="42" y="159"/>
    </contour>
  </outline>
</glyph>
<glyph name="eight.tab" format="2">
	<advance width="1000"/>
	<outline>
		<contour>
			<point x="303" y="392" type="qcurve" smooth="yes"/>
			<point x="303" y="584"/>
			<point x="390" y="778"/>
			<point x="471" y="851" type="qcurve"/>
			<point x="483" y="790" type="line"/>
			<point x="464" y="738"/>
			<point x="438" y="556"/>
			<point x="438" y="408" type="qcurve" smooth="yes"/>
			<point x="438" y="270"/>
			<point x="465" y="87"/>
			<point x="489" y="87" type="qcurve" smooth="yes"/>
			<point x="509" y="87"/>
			<point x="536" y="250"/>
			<point x="536" y="390" type="qcurve" smooth="yes"/>
			<point x="536" y="506"/>
			<point x="480" y="659"/>
			<point x="461" y="724" type="qcurve" smooth="yes"/>
			<point x="417" y="819"/>
			<point x="309" y="1023"/>
			<point x="309" y="1166" type="qcurve" smooth="yes"/>
			<point x="309" y="1330"/>
			<point x="423" y="1530"/>
			<point x="492" y="1530" type="qcurve" smooth="yes"/>
			<point x="563" y="1530"/>
			<point x="655" y="1350"/>
			<point x="655" y="1217" type="qcurve" smooth="yes"/>
			<point x="655" y="1086"/>
			<point x="585" y="904"/>
			<point x="504" y="807" type="qcurve"/>
			<point x="491" y="867" type="line"/>
			<point x="504" y="933"/>
			<point x="519" y="1078"/>
			<point x="519" y="1188" type="qcurve" smooth="yes"/>
			<point x="519" y="1292"/>
			<point x="503" y="1420"/>
			<point x="491" y="1420" type="qcurve" smooth="yes"/>
			<point x="475" y="1420"/>
			<point x="454" y="1282"/>
			<point x="454" y="1187" type="qcurve" smooth="yes"/>
			<point x="454" y="1097"/>
			<point x="512" y="944"/>
			<point x="526" y="890" type="qcurve" smooth="yes"/>
			<point x="584" y="791"/>
			<point x="697" y="577"/>
			<point x="697" y="415" type="qcurve" smooth="yes"/>
			<point x="697" y="233"/>
			<point x="580" y="-22"/>
			<point x="489" y="-22" type="qcurve" smooth="yes"/>
			<point x="402" y="-22"/>
			<point x="303" y="228"/>
		</contour>
	</outline>
</glyph>
<glyph name="eightsuperior" format="2">
  <advance width="583"/>
  <outline>
    <contour>
      <point x="273" y="1166" type="line"/>
      <point x="312" y="1196"/>
      <point x="359" y="1272"/>
      <point x="359" y="1324" type="qcurve" smooth="yes"/>
      <point x="359" y="1368"/>
      <point x="323" y="1426"/>
      <point x="292" y="1426" type="qcurve" smooth="yes"/>
      <point x="260" y="1426"/>
      <point x="217" y="1371"/>
      <point x="217" y="1325" type="qcurve" smooth="yes"/>
      <point x="217" y="1281"/>
      <point x="247" y="1229"/>
      <point x="313" y="1181" type="qcurve" smooth="yes"/>
      <point x="378" y="1136"/>
      <point x="505" y="1008"/>
      <point x="505" y="891" type="qcurve" smooth="yes"/>
      <point x="505" y="781"/>
      <point x="400" y="641"/>
      <point x="289" y="641" type="qcurve" smooth="yes"/>
      <point x="187" y="641"/>
      <point x="78" y="771"/>
      <point x="78" y="878" type="qcurve" smooth="yes"/>
      <point x="78" y="974"/>
      <point x="205" y="1106"/>
      <point x="245" y="1142" type="qcurve"/>
      <point x="289" y="1096" type="line"/>
      <point x="241" y="1053"/>
      <point x="187" y="950"/>
      <point x="187" y="890" type="qcurve" smooth="yes"/>
      <point x="187" y="833"/>
      <point x="238" y="743"/>
      <point x="290" y="743" type="qcurve" smooth="yes"/>
      <point x="332" y="743"/>
      <point x="384" y="832"/>
      <point x="384" y="886" type="qcurve" smooth="yes"/>
      <point x="384" y="940"/>
      <point x="341" y="1015"/>
      <point x="283" y="1058" type="qcurve" smooth="yes"/>
      <point x="210" y="1109"/>
      <point x="99" y="1222"/>
      <point x="99" y="1310" type="qcurve" smooth="yes"/>
      <point x="99" y="1405"/>
      <point x="212" y="1530"/>
      <point x="294" y="1530" type="qcurve" smooth="yes"/>
      <point x="380" y="1530"/>
      <point x="473" y="1417"/>
      <point x="473" y="1341" type="qcurve" smooth="yes"/>
      <point x="473" y="1270"/>
      <point x="372" y="1169"/>
      <point x="312" y="1117" type="qcurve"/>
    </contour>
  </outline>
</glyph>
<glyph name="five.lc" format="2">
	<advance width="551"/>
	<outline>
		<contour>
			<point x="312" y="99" type="qcurve" smooth="yes"/>
			<point x="309" y="246"/>
			<point x="203" y="380"/>
			<point x="124" y="380" type="qcurve" smooth="yes"/>
			<point x="70" y="380" type="line"/>
			<point x="46" y="450" type="line"/>
			<point x="87" y="1057" type="line"/>
			<point x="112" y="1090" type="line"/>
			<point x="458" y="1090" type="line"/>
			<point x="458" y="924" type="line"/>
			<point x="195" y="924" type="line"/>
			<point x="186" y="913" type="line"/>
			<point x="176" y="723"/>
			<point x="157" y="516"/>
			<point x="143" y="470" type="qcurve"/>
			<point x="219" y="500" type="line"/>
			<point x="346" y="497"/>
			<point x="495" y="300"/>
			<point x="495" y="101" type="qcurve" smooth="yes"/>
			<point x="495" y="-125"/>
			<point x="280" y="-390"/>
			<point x="99" y="-390" type="qcurve" smooth="yes"/>
			<point x="71" y="-390"/>
			<point x="10" y="-383"/>
			<point x="-11" y="-375" type="qcurve"/>
			<point x="5" y="-271" type="line"/>
			<point x="27" y="-277"/>
			<point x="57" y="-279"/>
			<point x="79" y="-279" type="qcurve" smooth="yes"/>
			<point x="190" y="-279"/>
			<point x="314" y="-92"/>
		</contour>
	</outline>
</glyph>
<glyph name="five.tab" format="2">
  <advance width="583"/>
  <outline>
    <contour>
      <point x="66" y="143" type="qcurve"/>
      <point x="130" y="250" type="line"/>
      <point x="148" y="201"/>
      <point x="202" y="107"/>
      <point x="242" y="111" type="qcurve" smooth="yes"/>
      <point x="282" y="115"/>
      <point x="336" y="272"/>
      <point x="336" y="444" type="qcurve" smooth="yes"/>
      <point x="336" y="613"/>
      <point x="259" y="796"/>
      <point x="190" y="796" type="qcurve" smooth="yes"/>
      <point x="151" y="796" type="line"/>
      <point x="114" y="850" type="line"/>
      <point x="148" y="1467" type="line"/>
      <point x="164" y="1500" type="line"/>
      <point x="474" y="1500" type="line"/>
      <point x="468" y="1324" type="line"/>
      <point x="246" y="1324" type="line"/>
      <point x="241" y="1313" type="line"/>
      <point x="219" y="905" type="line"/>
      <point x="264" y="937" type="line"/>
      <point x="377" y="937"/>
      <point x="520" y="711"/>
      <point x="520" y="492" type="qcurve" smooth="yes"/>
      <point x="520" y="251"/>
      <point x="358" y="-22"/>
      <point x="249" y="-22" type="qcurve" smooth="yes"/>
      <point x="188" y="-22"/>
      <point x="88" y="70"/>
    </contour>
  </outline>
</glyph>
<glyph name="fivesuperior" format="2">
	<advance width="446"/>
	<outline>
		<contour>
			<point x="1" y="736" type="qcurve"/>
			<point x="50" y="835" type="line"/>
			<point x="67" y="807"/>
			<point x="124" y="755"/>
			<point x="167" y="755" type="qcurve" smooth="yes"/>
			<point x="210" y="755"/>
			<point x="268" y="810"/>
			<point x="268" y="908" type="qcurve" smooth="yes"/>
			<point x="268" y="1005"/>
			<point x="185" y="1079"/>
			<point x="122" y="1079" type="qcurve" smooth="yes"/>
			<point x="84" y="1079" type="line"/>
			<point x="45" y="1110" type="line"/>
			<point x="70" y="1481" type="line"/>
			<point x="77" y="1500" type="line"/>
			<point x="367" y="1500" type="line"/>
			<point x="363" y="1354" type="line"/>
			<point x="146" y="1354" type="line"/>
			<point x="132" y="1338" type="line"/>
			<point x="120" y="1172" type="line"/>
			<point x="150" y="1196" type="line"/>
			<point x="260" y="1196"/>
			<point x="404" y="1067"/>
			<point x="404" y="941" type="qcurve" smooth="yes"/>
			<point x="404" y="803"/>
			<point x="279" y="641"/>
			<point x="197" y="641" type="qcurve" smooth="yes"/>
			<point x="132" y="641"/>
			<point x="30" y="696"/>
		</contour>
	</outline>
</glyph>
<glyph name="four.lc" format="2">
  <advance width="609"/>
  <outline>
    <contour>
      <point x="307" y="-376" type="line"/>
      <point x="316" y="119" type="line"/>
      <point x="316" y="699" type="line"/>
      <point x="207" y="204" type="line"/>
      <point x="213" y="194" type="line"/>
      <point x="610" y="168" type="line"/>
      <point x="610" y="72" type="line"/>
      <point x="68" y="68" type="line"/>
      <point x="49" y="174" type="line"/>
      <point x="370" y="1107" type="line"/>
      <point x="457" y="1070" type="line"/>
      <point x="484" y="1054" type="line"/>
      <point x="478" y="121" type="line"/>
      <point x="478" y="-376" type="line"/>
    </contour>
  </outline>
</glyph>
<glyph name="four.tab" format="2">
  <advance width="583"/>
  <outline>
    <contour>
      <point x="20" y="554" type="line"/>
      <point x="330" y="1547" type="line"/>
      <point x="427" y="1510" type="line"/>
      <point x="459" y="1459" type="line"/>
      <point x="453" y="491" type="line"/>
      <point x="453" y="129" type="line"/>
      <point x="651" y="94" type="line"/>
      <point x="651" y="0" type="line"/>
      <point x="79" y="0" type="line"/>
      <point x="79" y="94" type="line"/>
      <point x="277" y="129" type="line"/>
      <point x="286" y="489" type="line"/>
      <point x="293" y="1072" type="line"/>
      <point x="181" y="574" type="line"/>
      <point x="187" y="564" type="line"/>
      <point x="554" y="538" type="line"/>
      <point x="554" y="442" type="line"/>
      <point x="40" y="438" type="line"/>
    </contour>
  </outline>
</glyph>
<glyph name="nine.lc" format="2">
  <advance width="550"/>
  <outline>
    <contour>
      <point x="482" y="598" type="qcurve" smooth="yes"/>
      <point x="482" y="271"/>
      <point x="295" y="-271"/>
      <point x="151" y="-380" type="qcurve"/>
      <point x="137" y="-284" type="line"/>
      <point x="183" y="-163"/>
      <point x="289" y="280"/>
      <point x="289" y="602" type="qcurve" smooth="yes"/>
      <point x="289" y="812"/>
      <point x="279" y="1005"/>
      <point x="269" y="1005" type="qcurve" smooth="yes"/>
      <point x="260" y="1005"/>
      <point x="251" y="839"/>
      <point x="251" y="684" type="qcurve" smooth="yes"/>
      <point x="251" y="547"/>
      <point x="273" y="431"/>
      <point x="290" y="431" type="qcurve" smooth="yes"/>
      <point x="301" y="431"/>
      <point x="323" y="458"/>
      <point x="328" y="478" type="qcurve"/>
      <point x="340" y="415" type="line"/>
      <point x="319" y="368"/>
      <point x="263" y="312"/>
      <point x="230" y="312" type="qcurve" smooth="yes"/>
      <point x="154" y="312"/>
      <point x="70" y="513"/>
      <point x="70" y="678" type="qcurve" smooth="yes"/>
      <point x="70" y="873"/>
      <point x="184" y="1114"/>
      <point x="269" y="1114" type="qcurve" smooth="yes"/>
      <point x="368" y="1114"/>
      <point x="482" y="852"/>
    </contour>
  </outline>
</glyph>
<glyph name="nine.tab" format="2">
  <advance width="583"/>
  <outline>
    <contour>
      <point x="528" y="879" type="qcurve" smooth="yes"/>
      <point x="528" y="551"/>
      <point x="336" y="37"/>
      <point x="165" y="-81" type="qcurve"/>
      <point x="142" y="17" type="line"/>
      <point x="233" y="123"/>
      <point x="344" y="522"/>
      <point x="344" y="882" type="qcurve" smooth="yes"/>
      <point x="344" y="1140"/>
      <point x="310" y="1409"/>
      <point x="285" y="1409" type="qcurve" smooth="yes"/>
      <point x="266" y="1409"/>
      <point x="240" y="1208"/>
      <point x="240" y="1041" type="qcurve" smooth="yes"/>
      <point x="240" y="873"/>
      <point x="281" y="705"/>
      <point x="310" y="705" type="qcurve" smooth="yes"/>
      <point x="331" y="705"/>
      <point x="355" y="724"/>
      <point x="364" y="735" type="qcurve"/>
      <point x="381" y="665" type="line"/>
      <point x="364" y="629"/>
      <point x="302" y="572"/>
      <point x="265" y="572" type="qcurve" smooth="yes"/>
      <point x="172" y="572"/>
      <point x="58" y="812"/>
      <point x="58" y="977" type="qcurve" smooth="yes"/>
      <point x="58" y="1240"/>
      <point x="188" y="1520"/>
      <point x="286" y="1520" type="qcurve" smooth="yes"/>
      <point x="392" y="1520"/>
      <point x="528" y="1161"/>
    </contour>
  </outline>
</glyph>
<glyph name="ninesuperior" format="2">
  <advance width="583"/>
  <outline>
    <contour>
      <point x="50" y="1210" type="qcurve" smooth="yes"/>
      <point x="50" y="1360"/>
      <point x="183" y="1520"/>
      <point x="282" y="1520" type="qcurve" smooth="yes"/>
      <point x="397" y="1520"/>
      <point x="538" y="1315"/>
      <point x="538" y="1153" type="qcurve" smooth="yes"/>
      <point x="538" y="965"/>
      <point x="359" y="688"/>
      <point x="208" y="603" type="qcurve"/>
      <point x="171" y="687" type="line"/>
      <point x="260" y="746"/>
      <point x="377" y="951"/>
      <point x="377" y="1137" type="qcurve" smooth="yes"/>
      <point x="377" y="1270"/>
      <point x="323" y="1421"/>
      <point x="276" y="1421" type="qcurve" smooth="yes"/>
      <point x="241" y="1421"/>
      <point x="210" y="1315"/>
      <point x="210" y="1229" type="qcurve" smooth="yes"/>
      <point x="210" y="1152"/>
      <point x="264" y="1064"/>
      <point x="301" y="1064" type="qcurve" smooth="yes"/>
      <point x="328" y="1064"/>
      <point x="360" y="1086"/>
      <point x="369" y="1094" type="qcurve"/>
      <point x="387" y="1031" type="line"/>
      <point x="369" y="1010"/>
      <point x="302" y="967"/>
      <point x="263" y="967" type="qcurve" smooth="yes"/>
      <point x="167" y="967"/>
      <point x="50" y="1115"/>
    </contour>
  </outline>
</glyph>
<glyph name="one.tab" format="2">
  <advance width="583"/>
  <outline>
    <contour>
      <point x="-128" y="0" type="line"/>
      <point x="-128" y="94" type="line"/>
      <point x="180" y="129" type="line"/>
      <point x="180" y="754" type="line"/>
      <point x="178" y="1352" type="line"/>
      <point x="-130" y="1386" type="line"/>
      <point x="-130" y="1490" type="line"/>
      <point x="330" y="1513" type="line"/>
      <point x="362" y="1478" type="line"/>
      <point x="356" y="754" type="line"/>
      <point x="356" y="129" type="line"/>
      <point x="664" y="94" type="line"/>
      <point x="664" y="0" type="line"/>
    </contour>
  </outline>
</glyph>
<glyph name="seven.lc" format="2">
  <advance width="491"/>
  <outline>
    <contour>
      <point x="62" y="760" type="line"/>
      <point x="84" y="1090" type="line"/>
      <point x="471" y="1090" type="line"/>
      <point x="471" y="999" type="line"/>
      <point x="353" y="237" type="line"/>
      <point x="318" y="-376" type="line"/>
      <point x="146" y="-376" type="line"/>
      <point x="146" y="-303" type="line"/>
      <point x="229" y="259" type="line"/>
      <point x="309" y="911" type="line"/>
      <point x="289" y="934" type="line"/>
      <point x="210" y="934" type="line"/>
      <point x="174" y="760" type="line"/>
    </contour>
  </outline>
</glyph>
<glyph name="seven.tab" format="2">
  <advance width="583"/>
  <outline>
    <contour>
      <point x="76" y="1098" type="line"/>
      <point x="98" y="1500" type="line"/>
      <point x="513" y="1500" type="line"/>
      <point x="513" y="1409" type="line"/>
      <point x="385" y="625" type="line"/>
      <point x="276" y="-53" type="line"/>
      <point x="174" y="-53" type="line"/>
      <point x="174" y="20" type="line"/>
      <point x="267" y="670" type="line"/>
      <point x="355" y="1306" type="line"/>
      <point x="321" y="1332" type="line"/>
      <point x="234" y="1332" type="line"/>
      <point x="198" y="1098" type="line"/>
    </contour>
  </outline>
</glyph>
<glyph name="sevensuperior" format="2">
  <advance width="401"/>
  <outline>
    <contour>
      <point x="17" y="1230" type="line"/>
      <point x="33" y="1500" type="line"/>
      <point x="416" y="1500" type="line"/>
      <point x="416" y="1418" type="line"/>
      <point x="316" y="1034" type="line"/>
      <point x="293" y="653" type="line"/>
      <point x="144" y="653" type="line"/>
      <point x="144" y="695" type="line"/>
      <point x="229" y="1059" type="line"/>
      <point x="268" y="1341" type="line"/>
      <point x="246" y="1354" type="line"/>
      <point x="131" y="1354" type="line"/>
      <point x="105" y="1230" type="line"/>
    </contour>
  </outline>
</glyph>
<glyph name="six.lc" format="2">
  <advance width="551"/>
  <outline>
    <contour>
      <point x="73" y="495" type="qcurve" smooth="yes"/>
      <point x="73" y="792"/>
      <point x="259" y="1258"/>
      <point x="408" y="1364" type="qcurve"/>
      <point x="421" y="1271" type="line"/>
      <point x="372" y="1153"/>
      <point x="267" y="784"/>
      <point x="267" y="492" type="qcurve" smooth="yes"/>
      <point x="267" y="282"/>
      <point x="275" y="88"/>
      <point x="282" y="88" type="qcurve" smooth="yes"/>
      <point x="293" y="88"/>
      <point x="305" y="254"/>
      <point x="305" y="409" type="qcurve" smooth="yes"/>
      <point x="305" y="546"/>
      <point x="285" y="662"/>
      <point x="269" y="662" type="qcurve" smooth="yes"/>
      <point x="257" y="662"/>
      <point x="235" y="635"/>
      <point x="228" y="615" type="qcurve"/>
      <point x="214" y="678" type="line"/>
      <point x="235" y="725"/>
      <point x="296" y="781"/>
      <point x="327" y="781" type="qcurve" smooth="yes"/>
      <point x="402" y="781"/>
      <point x="486" y="580"/>
      <point x="486" y="415" type="qcurve" smooth="yes"/>
      <point x="486" y="220"/>
      <point x="368" y="-21"/>
      <point x="281" y="-21" type="qcurve" smooth="yes"/>
      <point x="186" y="-21"/>
      <point x="73" y="241"/>
    </contour>
  </outline>
</glyph>
<glyph name="six.tab" format="2">
  <advance width="583"/>
  <outline>
    <contour>
      <point x="55" y="619" type="qcurve" smooth="yes"/>
      <point x="55" y="947"/>
      <point x="246" y="1461"/>
      <point x="414" y="1579" type="qcurve"/>
      <point x="438" y="1481" type="line"/>
      <point x="348" y="1376"/>
      <point x="238" y="976"/>
      <point x="238" y="616" type="qcurve" smooth="yes"/>
      <point x="238" y="358"/>
      <point x="272" y="89"/>
      <point x="298" y="89" type="qcurve" smooth="yes"/>
      <point x="316" y="89"/>
      <point x="341" y="290"/>
      <point x="341" y="457" type="qcurve" smooth="yes"/>
      <point x="341" y="625"/>
      <point x="299" y="793"/>
      <point x="268" y="793" type="qcurve" smooth="yes"/>
      <point x="249" y="793"/>
      <point x="228" y="774"/>
      <point x="219" y="763" type="qcurve"/>
      <point x="202" y="833" type="line"/>
      <point x="219" y="869"/>
      <point x="283" y="926"/>
      <point x="320" y="926" type="qcurve" smooth="yes"/>
      <point x="411" y="926"/>
      <point x="523" y="686"/>
      <point x="523" y="519" type="qcurve" smooth="yes"/>
      <point x="523" y="258"/>
      <point x="394" y="-22"/>
      <point x="296" y="-22" type="qcurve" smooth="yes"/>
      <point x="192" y="-22"/>
      <point x="55" y="337"/>
    </contour>
  </outline>
</glyph>
<glyph name="sixsuperior" format="2">
	<advance width="583"/>
	<outline>
		<contour>
			<point x="57" y="1008" type="qcurve" smooth="yes"/>
			<point x="57" y="1196"/>
			<point x="238" y="1473"/>
			<point x="385" y="1558" type="qcurve"/>
			<point x="421" y="1474" type="line"/>
			<point x="331" y="1414"/>
			<point x="218" y="1210"/>
			<point x="218" y="1024" type="qcurve" smooth="yes"/>
			<point x="218" y="891"/>
			<point x="270" y="740"/>
			<point x="317" y="740" type="qcurve" smooth="yes"/>
			<point x="353" y="740"/>
			<point x="385" y="846"/>
			<point x="385" y="932" type="qcurve" smooth="yes"/>
			<point x="385" y="1009"/>
			<point x="333" y="1097"/>
			<point x="295" y="1097" type="qcurve" smooth="yes"/>
			<point x="268" y="1097"/>
			<point x="239" y="1075"/>
			<point x="229" y="1067" type="qcurve"/>
			<point x="212" y="1130" type="line"/>
			<point x="229" y="1151"/>
			<point x="292" y="1194"/>
			<point x="331" y="1194" type="qcurve" smooth="yes"/>
			<point x="426" y="1194"/>
			<point x="545" y="1046"/>
			<point x="545" y="951" type="qcurve" smooth="yes"/>
			<point x="545" y="801"/>
			<point x="413" y="641"/>
			<point x="311" y="641" type="qcurve" smooth="yes"/>
			<point x="197" y="641"/>
			<point x="57" y="846"/>
		</contour>
	</outline>
</glyph>
<glyph name="three.lc" format="2">
  <advance width="480"/>
  <outline>
    <contour>
      <point x="11" y="-271" type="line"/>
      <point x="22" y="-276"/>
      <point x="41" y="-279"/>
      <point x="43" y="-279" type="qcurve" smooth="yes"/>
      <point x="122" y="-279"/>
      <point x="204" y="-86"/>
      <point x="203" y="103" type="qcurve" smooth="yes"/>
      <point x="202" y="242"/>
      <point x="145" y="394"/>
      <point x="97" y="401" type="qcurve" smooth="yes"/>
      <point x="79" y="404" type="line"/>
      <point x="76" y="499" type="line"/>
      <point x="90" y="503" type="line" smooth="yes"/>
      <point x="138" y="516"/>
      <point x="198" y="659"/>
      <point x="198" y="798" type="qcurve" smooth="yes"/>
      <point x="198" y="893"/>
      <point x="158" y="987"/>
      <point x="122" y="987" type="qcurve" smooth="yes"/>
      <point x="99" y="987"/>
      <point x="57" y="934"/>
      <point x="38" y="896" type="qcurve"/>
      <point x="-24" y="981" type="line"/>
      <point x="4" y="1035"/>
      <point x="106" y="1115"/>
      <point x="183" y="1115" type="qcurve" smooth="yes"/>
      <point x="273" y="1115"/>
      <point x="388" y="964"/>
      <point x="388" y="827" type="qcurve" smooth="yes"/>
      <point x="388" y="673"/>
      <point x="289" y="502"/>
      <point x="216" y="465" type="qcurve"/>
      <point x="216" y="459" type="line"/>
      <point x="297" y="440"/>
      <point x="398" y="277"/>
      <point x="398" y="109" type="qcurve" smooth="yes"/>
      <point x="398" y="-115"/>
      <point x="224" y="-390"/>
      <point x="74" y="-390" type="qcurve" smooth="yes"/>
      <point x="53" y="-390"/>
      <point x="15" y="-383"/>
      <point x="0" y="-375" type="qcurve"/>
    </contour>
  </outline>
</glyph>
<glyph name="three.tab" format="2">
  <advance width="583"/>
  <outline>
    <contour>
      <point x="54" y="143" type="qcurve"/>
      <point x="125" y="248" type="line"/>
      <point x="151" y="168"/>
      <point x="206" y="103"/>
      <point x="245" y="103" type="qcurve" smooth="yes"/>
      <point x="287" y="103"/>
      <point x="343" y="250"/>
      <point x="343" y="403" type="qcurve" smooth="yes"/>
      <point x="343" y="571"/>
      <point x="263" y="728"/>
      <point x="201" y="728" type="qcurve" smooth="yes"/>
      <point x="175" y="728" type="line"/>
      <point x="146" y="829" type="line"/>
      <point x="215" y="835" type="line" smooth="yes"/>
      <point x="266" y="841"/>
      <point x="330" y="1006"/>
      <point x="330" y="1161" type="qcurve" smooth="yes"/>
      <point x="330" y="1278"/>
      <point x="287" y="1403"/>
      <point x="255" y="1403" type="qcurve" smooth="yes"/>
      <point x="228" y="1403"/>
      <point x="179" y="1340"/>
      <point x="158" y="1276" type="qcurve"/>
      <point x="96" y="1368" type="line"/>
      <point x="124" y="1442"/>
      <point x="223" y="1520"/>
      <point x="277" y="1520" type="qcurve" smooth="yes"/>
      <point x="393" y="1520"/>
      <point x="516" y="1332"/>
      <point x="516" y="1184" type="qcurve" smooth="yes"/>
      <point x="516" y="1038"/>
      <point x="432" y="857"/>
      <point x="345" y="800" type="qcurve"/>
      <point x="345" y="793" type="line"/>
      <point x="428" y="759"/>
      <point x="533" y="553"/>
      <point x="533" y="380" type="qcurve" smooth="yes"/>
      <point x="533" y="189"/>
      <point x="380" y="-22"/>
      <point x="265" y="-22" type="qcurve" smooth="yes"/>
      <point x="202" y="-22"/>
      <point x="88" y="60"/>
    </contour>
  </outline>
</glyph>
<glyph name="two.lc" format="2">
  <advance width="637"/>
  <outline>
    <contour>
      <point x="52" y="0" type="line"/>
      <point x="52" y="90" type="line"/>
      <point x="61" y="182"/>
      <point x="180" y="382"/>
      <point x="261" y="524" type="qcurve" smooth="yes"/>
      <point x="305" y="619"/>
      <point x="344" y="741"/>
      <point x="344" y="818" type="qcurve" smooth="yes"/>
      <point x="344" y="904"/>
      <point x="303" y="989"/>
      <point x="266" y="989" type="qcurve" smooth="yes"/>
      <point x="225" y="989"/>
      <point x="164" y="914"/>
      <point x="137" y="844" type="qcurve"/>
      <point x="65" y="939" type="line"/>
      <point x="104" y="1009"/>
      <point x="232" y="1115"/>
      <point x="329" y="1115" type="qcurve" smooth="yes"/>
      <point x="423" y="1115"/>
      <point x="547" y="971"/>
      <point x="547" y="833" type="qcurve" smooth="yes"/>
      <point x="547" y="712"/>
      <point x="415" y="512"/>
      <point x="340" y="406" type="qcurve" smooth="yes"/>
      <point x="292" y="332"/>
      <point x="229" y="216"/>
      <point x="221" y="160" type="qcurve"/>
      <point x="230" y="152" type="line"/>
      <point x="565" y="152" type="line"/>
      <point x="565" y="0" type="line"/>
    </contour>
  </outline>
</glyph>
<glyph name="two.tab" format="2">
  <advance width="548"/>
  <outline>
    <contour>
      <point x="32" y="0" type="line"/>
      <point x="32" y="122" type="line"/>
      <point x="39" y="253"/>
      <point x="158" y="488"/>
      <point x="224" y="657" type="qcurve" smooth="yes"/>
      <point x="274" y="800"/>
      <point x="303" y="998"/>
      <point x="303" y="1133" type="qcurve" smooth="yes"/>
      <point x="303" y="1253"/>
      <point x="272" y="1389"/>
      <point x="244" y="1389" type="qcurve" smooth="yes"/>
      <point x="214" y="1389"/>
      <point x="165" y="1300"/>
      <point x="145" y="1206" type="qcurve"/>
      <point x="73" y="1294" type="line"/>
      <point x="96" y="1394"/>
      <point x="206" y="1520"/>
      <point x="294" y="1520" type="qcurve" smooth="yes"/>
      <point x="379" y="1520"/>
      <point x="495" y="1321"/>
      <point x="495" y="1134" type="qcurve" smooth="yes"/>
      <point x="495" y="959"/>
      <point x="370" y="661"/>
      <point x="334" y="580" type="qcurve" smooth="yes"/>
      <point x="271" y="465"/>
      <point x="178" y="267"/>
      <point x="171" y="177" type="qcurve"/>
      <point x="175" y="166" type="line"/>
      <point x="514" y="166" type="line"/>
      <point x="514" y="0" type="line"/>
    </contour>
  </outline>
</glyph>
<glyph name="zero.lc" format="2">
  <advance width="631"/>
  <outline>
    <contour>
      <point x="64" y="547" type="qcurve" smooth="yes"/>
      <point x="64" y="784"/>
      <point x="204" y="1116"/>
      <point x="318" y="1116" type="qcurve" smooth="yes"/>
      <point x="432" y="1116"/>
      <point x="567" y="805"/>
      <point x="567" y="554" type="qcurve" smooth="yes"/>
      <point x="567" y="318"/>
      <point x="427" y="-22"/>
      <point x="313" y="-22" type="qcurve" smooth="yes"/>
      <point x="199" y="-22"/>
      <point x="64" y="293"/>
    </contour>
    <contour>
      <point x="255" y="569" type="qcurve" smooth="yes"/>
      <point x="255" y="349"/>
      <point x="151" y="89"/>
      <point x="315" y="89" type="qcurve" smooth="yes"/>
      <point x="492" y="89"/>
      <point x="377" y="348"/>
      <point x="377" y="554" type="qcurve" smooth="yes"/>
      <point x="377" y="743"/>
      <point x="483" y="999"/>
      <point x="318" y="999" type="qcurve" smooth="yes"/>
      <point x="139" y="999"/>
      <point x="255" y="765"/>
    </contour>
  </outline>
</glyph>
<glyph name="zero.tab" format="2">
  <advance width="583"/>
  <outline>
    <contour>
      <point x="52" y="746" type="qcurve" smooth="yes"/>
      <point x="52" y="1091"/>
      <point x="188" y="1520"/>
      <point x="292" y="1520" type="qcurve" smooth="yes"/>
      <point x="399" y="1520"/>
      <point x="531" y="1097"/>
      <point x="531" y="754" type="qcurve" smooth="yes"/>
      <point x="531" y="432"/>
      <point x="402" y="-22"/>
      <point x="296" y="-22" type="qcurve" smooth="yes"/>
      <point x="188" y="-22"/>
      <point x="52" y="399"/>
    </contour>
    <contour>
      <point x="237" y="772" type="qcurve" smooth="yes"/>
      <point x="238" y="481"/>
      <point x="267" y="91"/>
      <point x="292" y="91" type="qcurve" smooth="yes"/>
      <point x="318" y="91"/>
      <point x="345" y="447"/>
      <point x="346" y="746" type="qcurve" smooth="yes"/>
      <point x="348" y="1027"/>
      <point x="318" y="1390"/>
      <point x="294" y="1390" type="qcurve" smooth="yes"/>
      <point x="267" y="1390"/>
      <point x="236" y="1060"/>
    </contour>
  </outline>
</glyph>
<glyph name="zerosuperior" format="2">
	<advance width="620"/>
	<outline>
		<contour>
			<point x="74" y="1081" type="qcurve" smooth="yes"/>
			<point x="74" y="1273"/>
			<point x="204" y="1522"/>
			<point x="309" y="1522" type="qcurve" smooth="yes"/>
			<point x="415" y="1522"/>
			<point x="546" y="1291"/>
			<point x="546" y="1087" type="qcurve" smooth="yes"/>
			<point x="546" y="896"/>
			<point x="418" y="641"/>
			<point x="313" y="641" type="qcurve" smooth="yes"/>
			<point x="206" y="641"/>
			<point x="74" y="876"/>
		</contour>
		<contour>
			<point x="237" y="1098" type="qcurve" smooth="yes"/>
			<point x="237" y="947"/>
			<point x="276" y="761"/>
			<point x="309" y="761" type="qcurve" smooth="yes"/>
			<point x="345" y="761"/>
			<point x="384" y="928"/>
			<point x="384" y="1087" type="qcurve" smooth="yes"/>
			<point x="384" y="1232"/>
			<point x="343" y="1398"/>
			<point x="309" y="1398" type="qcurve" smooth="yes"/>
			<point x="274" y="1398"/>
			<point x="236" y="1249"/>
		</contour>
	</outline>
</glyph>
